<?xml version="1.0" encoding="UTF-8"?>
<svg id="Layer_1" data-name="Layer 1" xmlns="http://www.w3.org/2000/svg" viewBox="0 0 3464 3464">
  <defs>
    <style>
      .cls-1 {
        fill: #2d2d2d;
      }

      .cls-1, .cls-2, .cls-3 {
        stroke-width: 0px;
      }

      .cls-2 {
        fill: transparent;
      }

      .cls-3 {
        fill: #329e36;
      }
    </style>
  </defs>
  <rect class="cls-2" width="3464" height="3464"/>
  <g>
    <g>
      <path class="cls-1" d="M1340.99,2605.02v116.71c-10.14,0-19.74.42-29.26-.28-2.6-.19-5.5-3.33-7.34-5.8-11.35-15.19-22.43-30.59-33.64-45.89-1.88-2.57-3.97-4.98-7.45-9.32v60.46h-32.03c-2-7.84-2.25-105.68-.16-116.33,9.35,0,18.94-.4,28.46.26,2.62.18,5.59,3.13,7.41,5.55,11.37,15.18,22.45,30.58,33.63,45.9,1.94,2.66,3.9,5.3,6.84,9.29,2.16-7.75,1.01-14.18,1.21-20.45.22-6.65.05-13.31.05-19.97s0-13.11,0-20.12h32.3Z"/>
      <path class="cls-1" d="M2736.14,2721.17h-32.62v-115.76c2.2-.3,4.37-.84,6.55-.85,15.99-.07,31.98-.3,47.96.11,6.24.16,12.7,1.06,18.59,3.02,15.19,5.06,24.54,15.87,26.79,31.8,2.23,15.7-2.9,28.86-15.81,38.58-1.81,1.37-3.71,2.63-6.35,4.49,8.78,12.55,17.29,24.71,26.02,37.18-3.84,3.32-7.97,1.94-11.65,1.97-7.97.06-17.16,2.04-23.56-1.24-6.39-3.27-10.01-11.96-14.78-18.33-2.39-3.2-4.91-6.35-6.87-9.81-3.15-5.56-7.48-7-14.26-4.53v33.36ZM2736.68,2656.35c7.83,0,14.76.36,21.65-.1,6.69-.45,11.23-5.03,11.38-10.39.14-5.3-4.33-10.31-10.92-10.83-7.15-.57-14.39-.13-22.11-.13v21.46Z"/>
      <path class="cls-1" d="M2098.85,2676.37v15.58h60.15v29.23h-91.94c-2.26-7.15-2.9-101.96-.76-115.99h92.74v29h-60.04v12.12c17.89,1.72,36.1-.43,54.72,1.26v28.79h-54.87Z"/>
      <path class="cls-1" d="M699.69,2720.43v-114.95c2.2-.32,4.41-.96,6.59-.9,17.91.5,35.86.66,53.72,1.9,10.38.72,19.86,5.23,28.48,11.14,31.82,21.82,32.46,67.3,1.29,90-9.61,7-20.42,11.8-32.11,12.6-18.21,1.24-36.51,1.02-54.78,1.34-.91.02-1.83-.63-3.2-1.14ZM732.54,2691.73c8.88-.48,16.89-.09,24.56-1.52,12.53-2.34,21.15-13.68,21.5-26.53.34-12.45-7.28-23.2-19.41-27.13-8.65-2.8-17.43-2.19-26.64-1.18v56.35Z"/>
      <path class="cls-1" d="M1968.88,2605.01v41.36h41.66c1.51-13.26-.08-26.83.99-41.25,10.73-1.14,21.16-.52,32.28-.41v116.24c-10.14,1.8-20.57.41-32.37.87v-44.64h-42.72v43.85h-31.5c-2.38-6.53-3.27-98.5-.98-115.75,10.26-1.44,20.67-.81,32.63-.26Z"/>
      <path class="cls-1" d="M1763.99,2663.05c-.56,33.95-31.66,62.31-66.62,60.34-22.06-1.24-39.62-10.85-51.73-29.33-10.75-16.39-12.47-34.12-5.07-52.38,9.91-24.46,35.94-40.47,62.89-38.98,27.18,1.5,51.06,20.17,58.07,45.67,1.31,4.76,1.67,9.78,2.46,14.69ZM1699.67,2632.73c-15.97.15-29.24,14.08-29.13,30.6.11,16.56,13.51,30.15,29.61,30.02,16.04-.13,29.32-14,29.2-30.5-.12-16.42-13.76-30.27-29.68-30.12Z"/>
      <path class="cls-1" d="M2822.9,2605.02h92.67v29.14h-60.14c-.23,4.44-.4,7.65-.64,12.33,18.53,1.1,36.66-.15,55.23.77v29.17h-54.45v15.59h60.01v29.16h-91.9c-2.08-7.31-2.75-100.99-.79-116.17Z"/>
      <path class="cls-1" d="M1471.43,2623.3c-8.47,7.34-15.97,13.85-23.75,20.6-2.98-2.22-5.51-4.31-8.24-6.1-12.15-7.96-27.13-6.44-37.59,3.74-10.02,9.75-12.11,24.76-5.11,36.65,7.28,12.37,21.8,18.08,35.33,13.88,6.94-2.15,7.34-2.99,6.14-13.74-6.68-.32-13.52-.64-21-.99v-23.61h53.27c.28,2.88.72,5.43.74,7.98.08,10.99-.41,22.01.2,32.97.38,6.9-2.44,11.08-7.6,15.02-30.09,23.04-74.28,16.36-95.37-14.69-10.17-14.98-13.08-31.42-7.37-48.56,7.7-23.09,24.41-36.89,47.91-42.1,23.6-5.24,43.89,1.64,62.42,18.96Z"/>
      <path class="cls-1" d="M606.05,2604.88h37.51c14.66,38.03,29.44,76.38,44.55,115.59-2.94.55-5.04,1.17-7.17,1.28-3.65.19-7.32.1-10.98.05-5.65-.08-12.31,1.57-16.66-.87-4.16-2.34-5.93-8.95-9.12-14.31h-39.54c-2.11,4.76-4.23,9.53-6.42,14.47h-36.9c15.17-39.42,29.93-77.75,44.73-116.2ZM625.89,2655.89c-.72.1-1.43.19-2.15.29-2.99,7.87-5.97,15.75-9.29,24.48,7.62,1.04,13.89,1.84,20.71-.56-3.23-8.43-6.26-16.32-9.28-24.21Z"/>
      <path class="cls-1" d="M940.25,2721.17h-36.89c-2.01-4.49-4.16-9.27-6.49-14.48h-40.31c-2.04,4.57-4.16,9.33-6.46,14.47h-36.94c15.15-39.39,29.9-77.71,44.72-116.24h37.53c14.61,37.88,29.39,76.22,44.83,116.26ZM866.06,2680.73c8.02.76,14.32,2.1,20.91-.87-3.25-8.36-6.31-16.24-10.21-26.3-3.98,10.11-7.06,17.93-10.7,27.17Z"/>
      <path class="cls-1" d="M2333.24,2605.02h32.5c.22,3.35.57,6.24.58,9.13.05,16.96-.11,33.93.12,50.89.06,4.58.55,9.37,2,13.68,3.31,9.77,11.42,14.91,21.45,14.51,9.78-.39,17.64-6.46,20.18-16.33,1.14-4.45,1.52-9.2,1.57-13.82.18-15.97.05-31.93.1-47.9.01-3.23.31-6.46.51-10.15h31.73c.22,2.92.58,5.47.58,8.03.04,18.63.1,37.26,0,55.88-.12,22.68-9.37,40.38-30.66,49.32-22.03,9.25-43.68,7.5-62.91-7.96-9.42-7.57-14.72-17.87-16.77-29.77-.45-2.62-.94-5.28-.95-7.92-.08-22.22-.04-44.45-.04-67.59Z"/>
      <path class="cls-1" d="M2650.34,2604.95h31.73c.56.92,1.2,1.48,1.2,2.04.08,21.94,1.09,43.94-.09,65.82-1.72,31.72-25.66,51.99-57.46,50.7-36.7-1.49-54.54-28.33-53.74-55.78.59-20.57.12-41.16.12-62.47h32.89c0,3.65,0,6.89,0,10.13,0,15.97-.11,31.94.08,47.9.05,4.62.43,9.37,1.61,13.81,2.6,9.84,10.53,15.85,20.32,16.16,10.01.32,18.02-4.91,21.33-14.71,1.35-4,1.87-8.44,1.93-12.69.22-16.63.09-33.26.1-49.9,0-3.28,0-6.57,0-11Z"/>
      <path class="cls-1" d="M951.39,2721.16v-115.58c2.2-.35,4.37-.99,6.55-1,16.32-.08,32.64-.08,48.97.02,3.31.02,6.67.32,9.92.95,22.88,4.41,35.98,20.55,34.85,42.79-1.05,20.78-16.73,36.23-39.22,37.93-8.92.68-17.94.11-28.24.11v34.77h-32.82ZM984.75,2634.78v21.64c7.42,0,14.05.29,20.64-.08,7.5-.41,12-4.68,12.05-10.62.05-5.93-4.42-10.37-11.86-10.85-6.59-.42-13.22-.09-20.83-.09Z"/>
      <path class="cls-1" d="M2256.87,2634.13v16.15h54.66v29.41c-17.9,1.53-36.07-.26-54.9,1.07v40.15h-33.51c0-38.59-.03-76.96.03-115.86h93.54v29.08h-59.82Z"/>
      <path class="cls-1" d="M1595.7,2721.08h-32.75v-86.5h-33.81v-29.35h100.92v28.72h-33.46c-1.3,29.56.18,58.01-.9,87.13Z"/>
      <path class="cls-1" d="M1161.2,2605.09v29.21h-33.76v86.62h-33.24v-86.52h-34.23c-.94-10.02-.84-19.39-.02-29.31h101.26Z"/>
      <path class="cls-1" d="M1920.76,2605.09v29.21h-33.76v86.62h-33.24v-86.51h-34.23c-.95-10.02-.83-19.39-.03-29.32h101.27Z"/>
      <path class="cls-1" d="M2491.17,2634.27h-33.5c-2-9.8-.88-18.97-.87-27.99,7.42-2.16,83.26-2.87,101.27-.99,1.83,8.96.69,18.12.73,28.47h-34.14c-.07,15.35-.17,29.53-.2,43.7-.03,14.28,0,28.56,0,43.59h-32.56c-1.01-28.5.19-56.95-.72-86.79Z"/>
      <path class="cls-1" d="M1177.2,2721.22v-116.2h31.7v116.2h-31.7Z"/>
    </g>
    <g>
      <path class="cls-1" d="M2282.52,2449.63c-4.6.22-6.91.42-9.22.42-38.64.02-77.28-.14-115.91.16-6.43.05-10.23-1.98-13.85-7.28-30.22-44.29-60.73-88.38-91.17-132.51-2.07-3-4.23-5.92-6.72-9.4h-231.23v-100.04c2.53-.29,5.04-.82,7.55-.82,74.28.01,148.55.15,222.83.09,19.56-.01,38.47-3.89,56-12.67,22.38-11.22,36.81-29.34,42.99-53.58,4.68-18.38,4.68-37.07-.08-55.41-8.54-32.92-31.29-51.53-63.04-60.41-15.84-4.43-32.14-5.51-48.48-5.53-113.25-.16-226.5-.23-339.75-.3-2.92,0-5.83.37-10.04.65,0,4.39,0,8.27,0,12.15,0,62.29.02,124.58-.02,186.86-.02,32.12-3.05,63.91-12.64,94.69-25.64,82.32-82.62,129.92-165.96,146.57-50.95,10.18-102.11,9.27-152.32-5.21-79.23-22.85-128.3-75.11-148.33-154.87-6.69-26.65-8.75-53.83-8.74-81.23.02-96.6,0-193.19.01-289.79,0-2.96.25-5.91.38-8.72,7.43-2.31,110.61-2.92,123.99-.61,0,3.62,0,7.49,0,11.37,0,92.93.04,185.86-.02,278.8-.02,24.06,1.51,47.91,7.89,71.24,9.09,33.22,28.61,57.38,61.05,70.37,16.67,6.68,34.16,8.79,51.88,8.74,17.37-.05,34.53-2.16,50.89-8.69,34.05-13.57,54.1-39.19,61.92-74.21,3.68-16.47,6.3-33.54,6.41-50.36.66-98.26.44-196.52.52-294.78,0-4.23,0-8.47,0-13.43,7.52-.31,13.79-.79,20.07-.8,152.22-.04,304.44-.16,456.67.06,37.77.05,75.09,4.09,110.98,17.04,43.42,15.66,78.8,41.35,102.25,81.86,17.86,30.86,24.11,64.53,23.74,99.8-.3,28-5.21,55.01-17.23,80.41-17.48,36.94-45.41,63.6-81.75,81.77-2.68,1.34-5.39,2.62-8.05,3.99-.57.29-1,.84-2.61,2.23,12.62,18.79,25.89,37.36,38.89,56.11,13.28,19.16,26.67,38.24,39.99,57.37,13.07,18.77,26.13,37.56,40.29,57.93Z"/>
      <path class="cls-1" d="M2665.39,1911.51c80.21,179.38,160.07,357.98,239.99,536.7-7.98,2.26-105.48,3.07-126.14,1.14-58.2-139.03-116.63-278.61-176.07-420.6-59.25,141.54-117.53,280.78-176.06,420.61h-124.13c1.59-3.91,2.9-7.43,4.42-10.86,45.24-101.56,90.5-203.12,135.78-304.67,31.58-70.84,63.3-141.62,94.61-212.58,3.13-7.09,6.5-10.08,14.62-9.96,34.3.5,68.62.21,102.93.21h10.06Z"/>
      <path class="cls-1" d="M673.91,2449.49h-125.5c80.11-179.73,159.74-358.37,239.54-537.4,3.17-.2,6.11-.55,9.06-.55,34.97-.04,69.95.15,104.92-.18,7.03-.07,10.48,2.22,13.38,8.73,77.25,173.29,154.74,346.47,232.17,519.68,1.32,2.94,2.39,5.99,3.89,9.79h-125.13c-58.21-139.07-116.64-278.63-175.06-418.19-.67-.09-1.34-.19-2.01-.28-58.58,139.32-116.65,278.85-175.26,418.39Z"/>
    </g>
    <g>
      <path class="cls-1" d="M1733.65,975.66c-3.03,4.55-5.26,7.82-7.41,11.14-71.28,110.16-142.62,220.28-213.66,330.59-4.34,6.74-8.93,9.12-16.81,9.06-42.97-.37-85.94-.18-128.9-.18h-11.38c1.88-3.6,3.02-6.21,4.52-8.59,82.39-129.94,164.67-259.94,249.59-388.25,39.52-59.71,78.5-119.77,117.74-179.66,1.81-2.76,3.71-5.46,6.59-9.67,207.82,316.57,414.96,632.26,622.9,949.26-4.76.27-7.62.58-10.49.58-46.3.03-92.6-.15-138.9.2-7,.05-10.7-2.55-14.31-8.1-71.98-110.5-144.33-220.76-216.2-331.33-79.49-122.3-158.57-244.86-237.84-367.3-1.42-2.19-3-4.28-5.44-7.74Z"/>
      <path class="cls-3" d="M1126.56,1688.56c1.39-2.88,2.16-5,3.34-6.86,24.07-37.97,48.36-75.81,72.14-113.97,4.06-6.52,9-7.54,15.76-7.53,86.28.14,172.57.09,258.85.09,71.62,0,143.25,0,214.87,0h13.03c-2.08,4.03-3.07,6.39-4.43,8.52-23.89,37.7-47.92,75.3-71.62,113.11-3.44,5.49-7.28,7.49-13.73,7.48-159.91-.16-319.81-.13-479.72-.15-2.53,0-5.05-.4-8.5-.69Z"/>
    </g>
  </g>
</svg>
