<?xml version="1.0" encoding="UTF-8"?>
<svg id="PRINT" xmlns="http://www.w3.org/2000/svg" xmlns:xlink="http://www.w3.org/1999/xlink" viewBox="0 0 6819.83 1435.51">
  <defs>
    <style>
      .cls-1 {
        fill: #f9a01b;
      }

      .cls-1, .cls-2, .cls-3, .cls-4, .cls-5, .cls-6, .cls-7, .cls-8, .cls-9, .cls-10 {
        stroke-width: 0px;
      }

      .cls-11 {
        letter-spacing: 0em;
      }

      .cls-12 {
        letter-spacing: -.03em;
      }

      .cls-2 {
        fill: none;
      }

      .cls-13 {
        clip-path: url(#clippath-1);
      }

      .cls-3 {
        fill: #1b4592;
      }

      .cls-4 {
        fill: #f05869;
      }

      .cls-5 {
        fill: #fff;
      }

      .cls-14 {
        fill: #010101;
        font-family: Montserrat-Black, Montserrat;
        font-size: 1281.71px;
        font-weight: 800;
      }

      .cls-15 {
        clip-path: url(#clippath);
      }

      .cls-6 {
        fill: #2e0e3d;
      }

      .cls-7 {
        fill: #2e318f;
      }

      .cls-8 {
        fill: #fba92f;
      }

      .cls-9 {
        fill: #574261;
      }

      .cls-10 {
        fill: #00aca8;
      }
    </style>
    <clipPath id="clippath">
      <path class="cls-2" d="M2803.26,932.89h-341.33l-60.31,156.55h-307.97l392.66-898.24h297.7l392.66,898.24h-313.1l-60.31-156.55ZM2719.85,714.74l-87.26-225.85-87.26,225.85h174.52Z"/>
    </clipPath>
    <clipPath id="clippath-1">
      <polygon class="cls-2" points="3603.15 189.75 3607.18 1089.44 3304.43 1089.44 3304.43 189.75 3603.15 189.75"/>
    </clipPath>
  </defs>
  <text class="cls-14" transform="translate(0 1089.44)"><tspan x="0" y="0" xml:space="preserve">CR     </tspan><tspan class="cls-12" x="3830.92" y="0">Y</tspan><tspan class="cls-11" x="4702.48" y="0">ON</tspan></text>
  <g>
    <g>
      <g>
        <path class="cls-8" d="M3339.02,941.12c-7.77-2.74-15.55-5.46-23.32-8.21-16.32-5.77-32.75-11.23-48.9-17.43-12.74-4.89-24.78-11.28-34.11-21.67-2.46-2.74-4.89-5.65-6.67-8.85-4.76-8.57-1.21-17.66,7.96-21.12,5.91-2.23,11.98-1.95,17.97-.57,8.63,1.98,17.17,4.35,25.79,6.38,2.88.68,5.88.82,9.18.58-.84-.75-1.62-1.59-2.53-2.24-9.62-6.88-19.52-13.41-28.85-20.67-15.92-12.4-31.63-25.12-45.12-40.2-4.62-5.16-8.17-11.3-11.99-17.13-1.03-1.58-1.45-3.64-1.83-5.54-2.27-11.29,5.76-19.32,16.95-16.61,3.81.93,7.38,3.02,10.93,4.83,2.64,1.35,5.08,3.11,8.18,4.32-.9-1.65-1.83-3.29-2.69-4.96-9-17.49-16.23-35.64-19.89-55.04-1.38-7.31-2.1-14.74.42-21.99,2.92-8.41,11.42-11.53,18.61-6.34,3.91,2.82,7.57,6.55,10.06,10.65,7.1,11.71,13.66,23.75,20.2,35.78,5.9,10.86,11.46,21.92,17.27,32.83,1.43,2.68,3.29,5.12,4.95,7.68.37-.03.74-.07,1.1-.11.9-3.71,2.04-7.37,2.64-11.12,1.35-8.33,2.16-16.75,3.75-25.03.82-4.27,2.22-8.68,4.43-12.37,4.88-8.13,15.43-8.76,21.4-1.38,2.41,2.98,4.24,6.62,5.56,10.23,4.65,12.68,6.17,26,7.32,39.37,1.2,13.96,2.39,27.91,3.79,41.85.56,5.61,1.75,11.14,4.89,16.98,1.08-2.07,2.08-3.46,2.56-5.02,2.98-9.64,5.51-19.44,8.87-28.94,2.1-5.96,4.84-11.85,8.28-17.13,4.67-7.17,12.69-9.49,19.39-6.65,4.1,1.74,7.22,4.84,8.58,8.89,2.17,6.5,4.2,13.16,5.16,19.92,2.29,15.97.97,32.04.37,48.09-.59,15.94-1.2,31.93,2.06,47.69.99,4.81,2.77,9.46,4.36,14.13.47,1.37,1.52,2.54,2.66,4.37,1.28-3.62,2.34-6.56,3.35-9.52,3.31-9.73,6.47-19.52,9.97-29.18.85-2.34,2.59-4.45,4.24-6.4,6.97-8.2,16.74-8.1,23.58.21,4.17,5.07,6.12,11.16,7.49,17.45,3.47,15.94,3.17,31.97.09,47.85-2.5,12.93-5.85,25.69-8.94,38.5-1.17,4.85-.24,8.96,2.73,13.04,7.7,10.61,18.1,18.19,28.34,25.96,3.36,2.55,6.92,4.84,10.29,7.37,3.47,2.61,4.46,5.82,3.04,9.15-1.34,3.16-4.48,5.22-8.39,4.09-4.98-1.44-9.86-3.54-14.45-5.99-11.77-6.28-22.44-14.14-32.02-23.46-.76-.74-2.22-1.53-3.06-1.28-11.04,3.21-22.39,3.29-33.69,3.3-32.5.03-64.17-5.31-94.95-15.66-11.1-3.74-21.38-9.22-30.14-17.17-4.71-4.27-8.55-9.22-10.5-15.4-2.95-9.33.63-17.6,9.44-21.89,7.37-3.59,15.32-3.78,23.25-3.95,13.78-.29,27.24,2.37,40.75,4.51,3.2.5,6.44.74,9.67,1.1.05-.29.11-.58.16-.87Z"/>
        <path class="cls-5" d="M3412.45,978.8c3.78-8.42,19.66-45.49,18.88-73.16-.04-1.43-1.22-2.56-2.67-2.52-1.43.04-2.56,1.23-2.52,2.67.7,24.74-13.13,58.7-17.72,69.25-3.27-3.11-6.52-6.28-9.75-9.52-.15-.19-.31-.37-.5-.51-13.03-13.12-25.69-27.24-37.83-41.89-2.75-48.13,8.16-107.51,8.27-108.1.26-1.41-.67-2.76-2.08-3.03-1.4-.26-2.76.67-3.03,2.08-.11.57-10.11,55.02-8.65,102.35-19.54-24.14-37.64-49.47-53.71-73.88-.07-.25-.15-.51-.3-.74-2.34-3.52.24-26.59,3.97-45.95.27-1.41-.65-2.77-2.06-3.04-1.42-.27-2.77.65-3.04,2.06-1.34,6.97-4.64,25.25-4.89,37.94-3.3-5.13-6.5-10.2-9.6-15.2-.01-.04,0-.08-.02-.11-.14-.36-.36-.66-.62-.92-35.7-57.72-57.72-105.21-57.04-110.84.32-1.38-.54-2.76-1.92-3.1-1.39-.33-2.8.52-3.13,1.91-1.74,7.19,20.43,54.76,55.94,112.13-11.65,1.04-33.68-8.28-41.98-12.4-1.28-.64-2.84-.11-3.48,1.17-.64,1.28-.11,2.84,1.17,3.48,3.05,1.52,26.55,12.91,42.16,13.04,1.84.01,3.55-.15,5.13-.48,16.24,25.95,35.11,53.68,55.64,80.48-37.4-5.91-72.87-17.2-73.23-17.32-1.36-.44-2.83.31-3.26,1.68-.44,1.36.31,2.83,1.68,3.26.38.12,38.28,12.19,77.28,18,.12.02.24.03.36.03.46,0,.88-.15,1.26-.36,16.14,20.74,33.25,40.78,50.89,58.85-30.44,10.64-93.15-2.21-93.8-2.35-1.4-.29-2.78.61-3.07,2.01-.29,1.4.61,2.78,2.01,3.07,1.87.39,31.56,6.48,60.31,6.7,14.25.11,28.22-1.25,38.51-5.42,9.99,10.01,20.13,19.37,30.36,27.83.48.4,1.06.59,1.63.6.75,0,1.5-.31,2.02-.94.91-1.1.76-2.74-.34-3.65-5.8-4.8-11.54-9.87-17.23-15.14Z"/>
      </g>
      <g>
        <path class="cls-3" d="M3719.94,469.97c-.75-3.8-1.82-7.68-4.26-10.7-6.69-8.25-20.07-6.19-29.13-.64-25.51,15.6-33.75,47.9-43.58,76.14-2.35,6.73-5.12,13.71-10.62,18.24-8.46,6.95-20.75,6.19-30.92,10.27-16.8,6.74-25.29,25.43-29.72,42.99-4.43,17.55-6.79,36.44-17.68,50.9-9.79,13.01-25.18,20.6-36.33,32.47-27.32,29.11-33.24,87.91-32.68,126.52.24,16.73,8.79,36.05,25.35,38.46,2.7.39,5.54.28,8.01-.87,3.95-1.83,6.31-5.89,8.33-9.75,15.36-29.36,28.01-63.21,56.7-79.8,12.93-7.47,27.92-10.57,41.36-17.07,13.44-6.5,26.15-18.22,26.82-33.13.34-7.61-2.52-15.05-2.61-22.67-.22-18.9,15.86-33.46,30.54-45.36,14.68-11.9,30.67-26.64,30.17-45.54-.33-12.57-8.17-23.92-9.09-36.46-1.19-16.27,9.21-30.77,15.11-45.97,5.9-15.18,7.38-32.05,4.23-48.03Z"/>
        <path class="cls-5" d="M3681.97,508.12c-1.91-.86-4.15-.01-5,1.89-10.99,24.34-23.81,49.33-39.22,76.38-14.28,25.08-27.95,46.59-41.81,65.76-7.78,10.77-16.41,21.15-24.76,31.18-14.68,17.65-29.86,35.89-41.09,57.04-18.17,34.21-29.03,72.7-31.43,111.31-.1,1.53.74,2.91,2.01,3.58.46.24.98.39,1.53.43,2.09.13,3.88-1.46,4.01-3.54,2.33-37.54,12.89-74.96,30.56-108.23,10.86-20.46,25.79-38.4,40.22-55.75,8.43-10.13,17.14-20.61,25.08-31.59,14.02-19.4,27.84-41.13,42.26-66.45,15.52-27.26,28.45-52.44,39.54-77.01.86-1.91-.02-4.17-1.89-5Z"/>
      </g>
      <path class="cls-10" d="M3579.31,306.6c1.92-9.77-12.98-10.02-18.72-9.06-.41.07-.82.17-1.23.24v20.17c8.6-.69,18.3-2.9,19.95-11.35Z"/>
      <path class="cls-10" d="M3554.66,275.71c2.6-7.43,4.47-15.42,4.64-23.2.22-3.32-.06-7.43-.97-10.92-.1-.5-.21-1.02-.33-1.54.22-.68.33-1.4.18-2.27-.2-1.22-.91-2.42-1.83-3.46-2-5.64-5.18-10.96-9.97-12.37-8.27-2.43-6.81,18.07-6.66,22.51.2,6.14,2.52,12,4.56,17.73,1.96,5.51,4.74,13.92,3.43,19.88-.08.36.11.8.42,1.21-6.58,7.5-13.35,14.84-20.27,22.06-.96,1.01-1.93,2.01-2.9,3.01-.51-.15-.91-.02-.93.61,0,.1.03.2.04.3-13.65,13.95-28.24,27.06-45.41,36.56-1.34.74,1.25,3.53,2.32,2.94,16.21-8.96,30.15-21.04,43.15-34.08.88.03,1.92-.31,2.95-.76,1.01.8,2.12,1.46,3.05,1.94,6.2,3.24,13.48,2.73,20.24,2.49,2.47-.09,5.66-.14,9.01-.41v-20.17c-7.33,1.32-14.55,3.47-21.35,6.49-2.66,1.18-5.09,2.71-7.66,4.02,10.03-10.46,19.73-21.2,29-32.3v-6.16c-1.59,1.94-3.08,3.96-4.7,5.87Z"/>
      <path class="cls-10" d="M3656.49,144.95c5.84-4.26,10.36-9.04,13.75-15.46,3.62-6.87,6.09-14.74,7.12-22.43.59-4.44,2.26-11.04-.66-14.96-7.54-10.16-20.39,11.45-23.29,16.5-4.08,7.1-7.04,14.55-10.17,22.1-2.28,5.5-7.8,13.68-6.79,19.84.06.39.56,1.18,1.15,1.75-9.02,15.9-18.41,31.68-28.22,47.18-.11.02-.21.06-.32.08-.42.07-.46.43-.28.88-3.03,4.77-6.1,9.52-9.21,14.23-.02-1.09-.17-2.21-.38-3.32.17-1.81.31-3.6.49-5.35.61-6.14.93-12.4.73-18.57-.2-6.17-2.85-16.45-10.36-17.88-1.56-.3-2.96.27-4.2,1.26-1.61.06-2.33,1.31-2.53,2.83-.87,1.27-1.58,2.6-2.1,3.65-2.47,5.02-2.34,10.57-1.26,15.94.96,4.79,2.51,9.4,4.54,13.83.15.35.3.69.46,1.04.01.03.02.06.04.08.04.08.08.16.12.24.31.65.63,1.29.96,1.93.02.03.03.06.05.09.82,2.16,1.65,4.31,2.58,6.43.11.25.4.58.76.9.04.13.1.25.15.38.51,1.58,1.99,6.03,1.91,8.52-.12.17-.24.35-.36.52-.3.07-.5.28-.46.67-6,8.75-12.14,17.38-18.45,25.83-.12.16-.25.32-.37.49-.62-.2-1.07-.03-.78.86.01.04.03.07.04.11-3.79,5.03-7.8,9.87-11.79,14.73v6.16c4.66-5.58,9.25-11.23,13.66-17.04.6.82,1.65,1.52,2.23,1.18.04-.03.08-.05.12-.08,7,3.99,19.87,2.06,25.86,1.63,10.25-.74,23.96-1.6,28.09-13.27,1.44-4.08.21-6.86-2.22-8.68-.39-2.02-2.09-2.24-3.85-1.91-3.21-1.02-6.96-1.25-9.83-.96-7.63.75-14.78,2.82-21.42,6.66-2.75,1.59-5.4,3.11-8.01,4.91-2.79,1.93-5.35,4.52-8.07,6.67,5.94-7.99,11.73-16.12,17.39-24.37.3.09.57.08.71-.18.3-.53.49-1.12.61-1.75.14-.2.27-.39.41-.59.23-.03.44-.12.55-.36.17-.36.3-.73.45-1.1,5.45-8.04,10.77-16.19,15.98-24.41.17-.04.35-.07.52-.12,5.55,2.86,12.79,3.03,18.88,2.78,6.74-.28,13.72-.57,20.15-2.75,6.94-2.36,25.63-11.64,19.25-21.54-.1-.15-.21-.29-.31-.43,0-.02.02-.04.03-.06.51-1.07-2.05-3.31-2.91-2.32-6.63-3.24-18.23,1.53-23.73,3.62-4.46,1.69-8.74,3.73-12.92,5.98-3.34,1.16-6.89,2.76-8.92,5.31-.02.02-.02.05-.03.07-2.17,1.49-4.45,3.08-6.79,4.36,9.31-14.9,18.24-30.03,26.83-45.27,5.14-.1,10.53-4.18,14.43-7.01Z"/>
    </g>
    <g>
      <g>
        <g>
          <path class="cls-8" d="M2922.4,432.19c5.39-4.36,10.78-8.7,16.16-13.07,11.3-9.16,22.79-18.12,33.84-27.57,8.72-7.46,16.46-15.91,20.93-26.77,1.18-2.87,2.29-5.85,2.79-8.89,1.36-8.13-4.01-14.33-12.26-14.49-5.31-.11-10.05,1.83-14.4,4.61-6.28,4-12.38,8.28-18.64,12.32-2.09,1.35-4.43,2.31-7.11,3.05.46-.83.84-1.71,1.38-2.49,5.69-8.16,11.69-16.12,17.04-24.5,9.12-14.3,17.99-28.81,24.44-44.56,2.21-5.39,3.29-11.25,4.67-16.95.37-1.54.13-3.29-.11-4.91-1.38-9.59-10-13.69-18.1-8.39-2.76,1.81-5,4.47-7.3,6.91-1.71,1.81-3.15,3.89-5.27,5.73.24-1.56.52-3.12.73-4.69,2.21-16.39,2.82-32.81.26-49.21-.96-6.18-2.49-12.27-6.53-17.31-4.68-5.84-12.29-5.93-16.53.21-2.3,3.33-4.16,7.32-4.97,11.27-2.33,11.27-4.14,22.66-5.93,34.04-1.62,10.27-2.91,20.59-4.45,30.87-.38,2.52-1.17,4.99-1.76,7.48-.3.08-.6.15-.9.23-1.75-2.68-3.69-5.27-5.23-8.07-3.42-6.22-6.43-12.66-10.02-18.77-1.85-3.15-4.2-6.25-7-8.55-6.16-5.07-14.69-2.6-17.34,4.93-1.07,3.04-1.5,6.44-1.53,9.68-.11,11.36,2.43,22.34,5.28,33.25,2.98,11.4,5.97,22.79,8.78,34.23,1.13,4.6,1.75,9.32.9,14.83-1.43-1.34-2.62-2.16-3.44-3.26-5.08-6.8-9.84-13.85-15.17-20.43-3.34-4.13-7.17-8.03-11.38-11.25-5.72-4.37-12.73-3.95-17.24.19-2.76,2.53-4.36,5.87-4.29,9.46.11,5.76.38,11.61,1.51,17.23,2.68,13.3,8.26,25.66,13.24,38.21,4.96,12.47,9.94,24.96,11.79,38.37.56,4.09.47,8.28.52,12.42.02,1.22-.49,2.44-.88,4.21-2.03-2.51-3.7-4.54-5.33-6.6-5.36-6.78-10.62-13.65-16.11-20.32-1.33-1.62-3.3-2.8-5.16-3.88-7.83-4.54-15.54-1.71-18.62,6.8-1.88,5.19-1.71,10.57-1.02,15.94,1.74,13.61,6.49,26.22,13.4,37.94,5.62,9.54,11.87,18.71,17.92,27.99,2.29,3.52,2.71,7.03,1.51,11.1-3.11,10.57-9.22,19.5-15.15,28.55-1.94,2.97-4.12,5.78-6.08,8.74-2.01,3.04-1.89,5.87.17,8.11,1.95,2.13,5.02,2.87,7.8.88,3.55-2.54,6.82-5.58,9.77-8.81,7.56-8.29,13.8-17.52,18.77-27.6.39-.8,1.33-1.83,2.06-1.88,9.65-.56,18.67-3.7,27.63-6.87,25.76-9.12,49.35-22.27,70.83-39.14,7.75-6.09,14.35-13.33,19.05-22.09,2.53-4.71,4.18-9.71,3.99-15.16-.28-8.22-5.45-13.77-13.64-14.69-6.85-.77-13.2,1.31-19.54,3.41-11,3.65-20.91,9.55-31.02,15.04-2.39,1.3-4.9,2.4-7.35,3.59-.12-.21-.25-.43-.37-.64Z"/>
          <path class="cls-5" d="M2874.83,482.71c-5.37-5.6-28.39-30.51-35.56-52.66-.37-1.15.25-2.37,1.4-2.75,1.15-.37,2.38.26,2.75,1.4,6.41,19.8,26.93,42.82,33.53,49.88,1.72-3.38,3.4-6.81,5.05-10.29.06-.2.14-.38.25-.55,6.64-14.06,12.69-28.81,18.18-43.84-11.37-38.91-36.73-82.89-36.98-83.33-.6-1.04-.25-2.38.79-2.98,1.03-.6,2.38-.25,2.98.79.25.42,23.5,40.75,35.66,78.66,8.68-24.63,15.9-49.8,21.76-73.66-.01-.22-.03-.44.03-.67.86-3.45-7.67-21.01-16.08-35.3-.61-1.04-.26-2.38.77-2.99,1.05-.61,2.38-.26,2.99.77,3.03,5.14,10.78,18.7,14.56,28.68,1.17-4.99,2.28-9.91,3.32-14.75,0-.03-.02-.06-.02-.1,0-.33.1-.63.23-.9,12.03-55.79,16.12-99.61,13.99-103.88-.64-1.01-.35-2.34.65-3,1.01-.66,2.36-.38,3.02.63,3.41,5.21-.77,49.14-12.75,104.6,9.52-2.46,24.35-16.05,29.78-21.65.83-.86,2.22-.89,3.09-.05.87.84.89,2.22.05,3.09-1.99,2.06-17.4,17.71-29.73,22.2-1.45.53-2.86.88-4.2,1.06-5.57,25.13-12.7,52.42-21.43,79.43,27.97-15.21,52.9-34.14,53.15-34.34.96-.73,2.33-.55,3.06.41.73.96.55,2.33-.41,3.06-.27.2-26.9,20.44-56.16,36.02-.09.05-.19.09-.28.12-.36.13-.74.13-1.1.07-6.95,20.97-14.87,41.67-23.76,60.96,27.11-.14,73.18-27.97,73.66-28.26,1.03-.63,2.37-.3,3,.73.63,1.03.3,2.37-.73,3-1.37.84-23.18,14.02-45.9,22.29-11.26,4.1-22.71,6.95-32.04,6.55-5.1,10.75-10.5,21.02-16.22,30.6-.27.45-.67.77-1.13.93-.6.22-1.28.17-1.87-.18-1.04-.62-1.37-1.96-.76-2.99,3.24-5.44,6.37-11.07,9.39-16.85Z"/>
        </g>
        <g>
          <path class="cls-3" d="M2189.23,959.9c-6.63-10.86-17.2-19.12-22.61-30.63-6.02-12.8-4.81-27.63-5.4-41.76-.59-14.13-4.1-29.79-15.88-37.63-7.13-4.74-16.65-6.12-22.01-12.79-3.49-4.34-4.5-10.12-5.22-15.65-3.02-23.17-4.17-49.2-21.19-65.2-6.05-5.69-15.95-9.4-22.39-4.16-2.35,1.92-3.78,4.71-4.97,7.5-4.96,11.72-6.52,24.86-4.43,37.41,2.09,12.57,7.73,25.33,4.22,37.58-2.7,9.45-10.51,16.88-12.77,26.44-3.4,14.38,6.48,28.2,15.81,39.65,9.33,11.45,19.31,25.15,16.12,39.58-1.28,5.81-4.66,11.05-5.61,16.93-1.87,11.52,5.98,22.51,15.23,29.63,9.25,7.12,20.22,11.88,28.92,19.66,19.3,17.26,23.57,45.18,30.64,70.09.93,3.27,2.08,6.76,4.81,8.79,1.71,1.27,3.87,1.81,5.99,1.94,13.05.8,22.68-12.61,25.53-25.37,6.59-29.45,11.44-75.38-4.81-102Z"/>
          <path class="cls-5" d="M2175.83,1089.33c-.39.11-.81.14-1.24.08-1.62-.23-2.74-1.73-2.5-3.35,4.21-29.09,2.1-59.41-6.11-87.67-5.05-17.38-13.6-33.49-21.87-49.06-4.83-9.1-9.83-18.5-14.14-28.17-7.63-17.08-14.74-35.91-21.72-57.58-7.52-23.33-13.4-44.66-17.96-65.22-.35-1.6.68-3.19,2.25-3.53,1.59-.35,3.17.65,3.53,2.25,4.52,20.38,10.35,41.54,17.81,64.69,6.92,21.46,13.95,40.1,21.5,56.98,4.24,9.48,9.18,18.8,13.97,27.8,8.41,15.84,17.11,32.22,22.33,50.19,8.44,29.07,10.61,60.25,6.28,90.17-.17,1.19-1.03,2.11-2.11,2.42Z"/>
        </g>
      </g>
      <path class="cls-10" d="M2803.26,932.89h-341.33l-60.31,156.55h-307.97l392.66-898.24h297.7l392.66,898.24h-313.1l-60.31-156.55ZM2719.85,714.74l-87.26-225.85-87.26,225.85h174.52Z"/>
      <g class="cls-15">
        <g>
          <g>
            <path class="cls-6" d="M2697.2,969.3c-2.52-17.39-12.49-33.22-13.74-50.74-.65-9.12,1.16-18.41,5.18-26.62,4.08-8.33,10.41-15.62,12.92-24.55,5.22-18.58-7.4-37.36-8.41-56.64-1.38-26.51,11.29-48.29,13.48-77.62,7.52,9.87,15.04,19.73,22.56,29.6,12.33,16.18,25.34,34.67,22.84,54.86-1.36,10.98-7.31,21.22-7.22,32.28.11,13.99,9.71,25.97,13.59,39.42,3.34,11.59,2.24,24.4-3.03,35.24-4.06,8.35-10.52,15.68-12.56,24.73-1.99,8.86.54,18.02,1.45,27.05,3.57,35.34-18.78,69.51-48.49,88.98-2.67,1.75-5.61,3.47-8.81,3.36-5.47-.18-9.44-5.9-9.69-11.36-.25-5.47,2.21-10.66,4.64-15.56,10.07-20.32,18.56-49.8,15.28-72.44Z"/>
            <path class="cls-5" d="M2681.97,1069.96c-.17-.1-.33-.21-.48-.35-1.09-.99-1.18-2.68-.19-3.77,18.23-20.13,32.14-54.76,33.82-84.21.59-10.24,3.16-19.97,5.65-29.37,1.67-6.3,3.39-12.82,4.49-19.41,1.8-10.78.91-21.98.06-32.82-.22-2.84-.45-5.68-.63-8.51-.56-8.77.29-17.11,1.11-25.18.38-3.77.78-7.66,1.03-11.58.97-15.14,1.46-35-3.43-54.44-3.45-13.71-7.96-27.14-13.4-39.92-.58-1.36.05-2.93,1.41-3.5,1.36-.58,2.93.06,3.51,1.41,5.54,13.04,10.14,26.74,13.66,40.71,5.07,20.16,4.58,40.57,3.58,56.09-.26,4.01-.66,7.96-1.05,11.77-.83,8.21-1.62,15.97-1.09,24.3.18,2.8.4,5.62.62,8.43.88,11.15,1.79,22.69-.11,34.12-1.14,6.84-2.9,13.47-4.6,19.89-2.53,9.57-4.93,18.6-5.48,28.31-1.77,31.05-15.92,66.21-35.2,87.49-.85.94-2.23,1.13-3.29.53Z"/>
          </g>
          <g>
            <path class="cls-3" d="M3118.52,1044.92c-4.22-15.37-14.08-28.97-16.61-44.71-2.81-17.5,3.77-34.93,7.96-52.15,4.18-17.22,5.38-37.28-6.09-50.8-6.94-8.17-17.93-13.13-22.07-23.02-2.7-6.44-1.91-13.74-.86-20.64,4.39-28.94,12.02-60.67-2.94-85.83-5.31-8.94-15.95-16.84-25.52-12.76-3.49,1.49-6.19,4.36-8.58,7.31-10.03,12.39-16.45,27.67-18.28,43.51-1.83,15.86.54,33.17-7.93,46.71-6.53,10.44-18.5,16.68-24.53,27.41-9.07,16.13-1.96,36.19,5.31,53.21,7.27,17.02,14.54,36.97,5.71,53.23-3.56,6.56-9.43,11.69-12.61,18.43-6.24,13.22-.59,29.17,8.07,40.94,8.67,11.77,20.23,21.3,28.01,33.67,17.26,27.47,12.74,62.55,12.62,94.99-.02,4.26.16,8.86,2.75,12.25,1.62,2.12,4.03,3.52,6.54,4.41,15.44,5.49,31.67-7.33,39.52-21.71,18.13-33.17,39.88-86.78,29.52-124.47Z"/>
            <path class="cls-5" d="M3057.57,1196.1c-.51,0-1.03-.11-1.52-.33-1.86-.84-2.69-3.03-1.85-4.9,15.14-33.56,23.09-70.79,23-107.66-.06-22.67-4.78-45.03-9.35-66.64-2.67-12.62-5.42-25.68-7.28-38.81-3.27-23.2-5.31-48.33-6.22-76.84-.98-30.69-.67-58.4.96-84.73.13-2.04,1.93-3.6,3.92-3.47,2.04.13,3.6,1.88,3.47,3.92-1.61,26.1-1.92,53.59-.95,84.04.9,28.24,2.91,53.11,6.15,76.04,1.82,12.88,4.55,25.81,7.19,38.31,4.64,21.99,9.45,44.72,9.5,68.16.09,37.92-8.09,76.21-23.66,110.73-.62,1.37-1.97,2.18-3.38,2.18Z"/>
          </g>
          <g>
            <path class="cls-3" d="M2434.55,436.59c7.78-11.55,11.17-25.82,20.15-36.46,9.99-11.83,25.28-17.39,39.07-24.42,13.79-7.03,27.76-17.67,30.18-32.95,1.46-9.25-1.51-19.35,2.68-27.73,2.73-5.45,8.02-9.09,13.18-12.33,21.67-13.57,47.03-26.59,55.18-50.82,2.9-8.61,2.08-20.16-6.08-24.16-2.98-1.46-6.41-1.62-9.73-1.52-13.92.41-27.7,4.86-39.23,12.66-11.55,7.82-21.66,19.24-35.45,21.34-10.63,1.62-21.58-2.76-32.12-.64-15.85,3.18-25.09,19.31-32.22,33.81-7.13,14.51-16.21,30.68-32.01,34.09-6.37,1.37-13.11.41-19.39,2.14-12.31,3.39-19.66,16.22-22.52,28.66-2.86,12.44-2.59,25.53-6.36,37.73-8.37,27.07-34.18,44.05-55.73,62.45-2.83,2.42-5.77,5.15-6.55,8.8-.48,2.28-.04,4.67.8,6.85,5.16,13.35,22.88,16.8,36.88,13.82,32.29-6.88,80.19-23,99.25-51.31Z"/>
            <path class="cls-5" d="M2299.72,482.3c-.29-.34-.51-.74-.65-1.19-.5-1.71.48-3.51,2.19-4.02,30.85-9.08,60.04-25.01,84.41-46.06,14.99-12.95,27.1-28.8,38.82-44.14,6.84-8.95,13.92-18.21,21.56-26.91,13.5-15.38,28.99-31.04,47.36-47.87,19.77-18.12,38.31-33.69,56.67-47.61,1.43-1.08,3.48-.77,4.53.62,1.08,1.42.8,3.45-.62,4.53-18.2,13.79-36.59,29.24-56.21,47.22-18.19,16.67-33.52,32.17-46.87,47.37-7.5,8.54-14.51,17.71-21.28,26.57-11.92,15.59-24.24,31.72-39.73,45.1-25.06,21.65-55.08,38.03-86.81,47.37-1.26.37-2.57-.06-3.37-.99Z"/>
          </g>
          <g>
            <path class="cls-4" d="M2978.84,713.12c-10.87-9.21-18.19-22.32-29.99-30.29-13.12-8.87-29.73-10.09-45.27-13.17-15.53-3.09-32.25-9.67-38.89-24.05-4.02-8.7-3.9-19.47-10.35-26.55-4.2-4.61-10.42-6.72-16.41-8.47-25.11-7.33-53.71-13.09-68.48-34.68-5.25-7.67-7.65-19.27-.74-25.48,2.52-2.27,5.86-3.37,9.15-4.2,13.82-3.47,28.62-2.92,42.15,1.55,13.55,4.48,26.69,12.92,40.85,11.15,10.92-1.36,20.48-8.72,31.45-9.57,16.49-1.28,30.08,12.03,41.14,24.33,11.06,12.3,24.5,25.7,41,24.66,6.65-.42,13.02-3.25,19.69-3.29,13.06-.08,23.87,10.5,30.15,21.95,6.28,11.46,9.65,24.41,16.76,35.38,15.77,24.33,45.92,33.86,72.26,45.98,3.46,1.59,7.12,3.47,8.89,6.84,1.11,2.11,1.34,4.59,1.12,6.96-1.36,14.58-17.86,22.91-32.47,23.87-33.71,2.21-85.35-.33-112.01-22.9Z"/>
            <path class="cls-5" d="M3124.32,720.61c.19-.41.3-.87.31-1.36.02-1.83-1.45-3.33-3.27-3.35-32.9-.36-66.08-7.92-95.93-21.87-18.36-8.58-34.7-20.82-50.51-32.65-9.23-6.91-18.77-14.06-28.72-20.5-17.58-11.38-37.18-22.49-59.95-33.96-24.51-12.34-47.09-22.52-69.05-31.1-1.7-.67-3.64.21-4.29,1.88-.67,1.7.17,3.62,1.88,4.29,21.76,8.51,44.16,18.6,68.49,30.85,22.55,11.36,41.96,22.35,59.33,33.6,9.76,6.32,19.21,13.4,28.35,20.24,16.07,12.04,32.7,24.49,51.67,33.35,30.7,14.34,64.82,22.12,98.66,22.49,1.34.01,2.51-.77,3.04-1.92Z"/>
          </g>
          <g>
            <path class="cls-4" d="M2547.95,458.32c2.38-5.85,2.96-12.32-.56-17.69-2.85-4.35-7.77-6.44-12.49-5.45-4.76,1-8.72,3.78-12.33,7.24-.97.93-1.76,2.1-2.71,3.25-.4-4.07-1.03-7.98-2.29-11.74-1.92-5.73-5.85-14.02-12.41-13.05-4.43.66-7.12,5.52-8.02,10.02-1.07,5.34-.62,10.66.35,15.95.2,1.12.51,2.22.8,3.46-1.53-.42-2.94-.82-4.36-1.19-5.88-1.53-12.59-2.85-18,1.07-3.54,2.57-5.24,7.19-4.27,11.8,1.7,8.04,9.23,13.85,15.93,16.02,1.78.58,3.61.96,5.43,1.43-.01.04-.02.12-.06.17-4.78,6.04-6.34,16.37-2.71,23.52,6.55,12.93,20.81,6.02,24.46-5.5.19-.61.35-1.23.56-1.98.84.91,1.58,1.72,2.32,2.53,4.79,5.25,12.4,9.24,19.25,8.75,9.74-.7,12.12-12.44,10.32-21.53-.26-1.28-.59-2.55-1.02-3.78-1.05-3.02-2.55-5.88-4.56-8.23-.71-.84-1.51-1.58-2.29-2.4.15-.16.29-.3.43-.44,3.1-3.02,6.26-7.42,8.22-12.23Z"/>
            <path class="cls-8" d="M2523.61,467.67c0,5.87-4.25,10.62-9.5,10.62s-9.5-4.76-9.5-10.62,4.25-10.62,9.5-10.62,9.5,4.76,9.5,10.62Z"/>
          </g>
          <g>
            <g>
              <path class="cls-4" d="M2491.56,1093.42s62.68-97.75,24.18-107.13c-38.51-9.38-24.18,107.13-24.18,107.13Z"/>
              <path class="cls-4" d="M2491.93,1093.43s-79-79.62-95.93-45.28c-16.93,34.34,95.93,45.28,95.93,45.28Z"/>
              <path class="cls-4" d="M2452.44,1015.65s81.39-91.9,42.7-107.97c-38.69-16.07-42.7,107.97-42.7,107.97Z"/>
              <path class="cls-4" d="M2454.83,1010.37s-81.88-103.81-106.3-65.87c-24.42,37.95,106.3,65.87,106.3,65.87Z"/>
              <path class="cls-4" d="M2428.92,913.89s74.46-57.93,47.5-75.54c-26.96-17.61-47.5,75.54-47.5,75.54Z"/>
              <path class="cls-4" d="M2429.25,914.07s-43.82-83.55-65.93-60.14c-22.1,23.42,65.93,60.14,65.93,60.14Z"/>
              <path class="cls-4" d="M2420.82,825.16s65.01-50.58,41.47-65.95c-23.54-15.37-41.47,65.95-41.47,65.95Z"/>
              <path class="cls-4" d="M2420.8,825.92s-41.12-71.2-59.54-50.02c-18.42,21.17,59.54,50.02,59.54,50.02Z"/>
            </g>
            <path class="cls-4" d="M2412.09,742.97c-.49,7.95,5.57,14.8,13.52,15.29,7.95.49,14.8-5.57,15.29-13.52.49-7.95-5.56-14.8-13.52-15.29-7.95-.49-14.8,5.56-15.29,13.52Z"/>
            <g>
              <path class="cls-1" d="M2420.78,829.78l-1.66-1.26c-13.32-10.1-38.48-35.46-39.54-36.53-.77-.78-.76-2.03.01-2.8.78-.77,2.03-.76,2.8.01.25.25,23.99,24.18,37.48,34.88l29.59-43.58c.61-.9,1.85-1.14,2.75-.53.9.61,1.14,1.85.52,2.75l-31.95,47.05Z"/>
              <path class="cls-1" d="M2490.76,1095.72c-.64-.02-1.27-.35-1.63-.94-47.81-77.2-63.08-164.07-67.46-223.36-4.75-64.21,1.88-110.84,1.95-111.3.16-1.08,1.16-1.82,2.24-1.67,1.08.16,1.83,1.16,1.67,2.24-.27,1.84-25.73,185.57,64.96,332.01.58.93.29,2.15-.64,2.72-.34.21-.72.31-1.09.3Z"/>
              <path class="cls-1" d="M2428.91,915.2c-.39-.01-.78-.14-1.11-.38-1.54-1.13-37.87-27.81-50.53-43.86-.68-.86-.53-2.1.33-2.78.86-.68,2.1-.53,2.78.33,12.32,15.63,49.38,42.85,49.76,43.12.88.65,1.07,1.88.43,2.77-.4.55-1.02.83-1.65.81Z"/>
              <path class="cls-1" d="M2428.83,918.01c-.33,0-.67-.1-.97-.29-.93-.57-1.23-1.79-.66-2.72l36.16-59.3c.57-.93,1.79-1.23,2.72-.66.93.57,1.23,1.79.66,2.72l-36.16,59.3c-.38.63-1.06.97-1.75.95Z"/>
              <path class="cls-1" d="M2452.26,1010.55c-.32,0-.64-.09-.94-.27-14.52-8.45-64-43-66.1-44.46-.9-.63-1.11-1.86-.49-2.76.63-.9,1.86-1.12,2.76-.49.51.36,51.45,35.92,65.83,44.29.94.55,1.27,1.76.72,2.71-.38.65-1.07,1-1.77.98Z"/>
              <path class="cls-1" d="M2455.56,1014.51c-.22,0-.45-.05-.67-.14-1.02-.4-1.52-1.55-1.11-2.57l30.28-76.54c.4-1.02,1.55-1.52,2.57-1.11,1.02.4,1.52,1.55,1.11,2.57l-30.28,76.54c-.31.8-1.09,1.27-1.89,1.25Z"/>
              <path class="cls-1" d="M2493.41,1095.45l-2.24-.9c-26.86-10.81-74.2-33.75-74.67-33.98-.98-.48-1.39-1.66-.92-2.64.48-.98,1.66-1.4,2.64-.92.46.22,45.13,21.88,72.18,32.96l15.6-84.01c.2-1.07,1.24-1.78,2.31-1.58,1.07.2,1.78,1.23,1.58,2.31l-16.49,88.77Z"/>
            </g>
          </g>
          <path class="cls-6" d="M2948.74,483.01c-.03-.07-.04-.14-.08-.21-.23-.4-.54-.34-.81-.06-.98-.3-1.97-.6-2.95-.91-7.05-2.2-14.04-4.53-20.96-7.03.05-.38.02-.73-.16-.93-2.97-3.38-4.18-9.81-4.88-14.07-.73-4.43-1.32-9.04-3.37-13.08-1.49-2.93-7.86-16.69-12.33-12.17-2.59,2.62-2.75,7.19-2.03,11.55-.22,1.01-.26,2.03.05,2.89.22.61.54,1.04.93,1.4.11.38.22.75.34,1.11.65,2.58,1.94,5.33,3.27,7.4,2.89,4.97,6.95,9.47,11.28,13.34-6.06-2.31-12.06-4.77-18-7.43,0-.03,0-.06-.01-.08-.13-.68-.48-.63-.81-.28-.14-.06-.28-.12-.41-.18-7.09-3.21-14.14-6.6-21.14-10.11-.11-.26-.31-.33-.53-.27-.14-.07-.28-.14-.42-.21-.94-1.58-1.57-4.98-1.8-6.18-.02-.1-.03-.2-.04-.3.12-.33.19-.65.17-.85-.15-1.7-.38-3.39-.62-5.08,0-.03,0-.05,0-.08-.01-.53-.03-1.06-.06-1.59,0-.07,0-.13,0-.2,0-.02,0-.04,0-.07-.02-.28-.05-.56-.07-.83-.27-3.59-.92-7.12-2-10.56-1.22-3.85-3.11-7.48-6.5-9.85-.71-.5-1.64-1.1-2.66-1.61-.67-.91-1.58-1.47-2.64-.93-1.15-.2-2.26-.06-3.16.68-4.35,3.6-2.39,11.19-.32,15.25,2.07,4.05,4.51,7.99,7.1,11.74.74,1.07,1.47,2.17,2.22,3.28.26.8.56,1.57.94,2.29-3.69-1.94-7.37-3.91-11.02-5.91-.05-.35-.2-.57-.49-.47-.08.03-.16.04-.24.06-11.87-6.52-23.56-13.36-35.06-20.41.18-.58.22-1.27.12-1.54-1.55-4.34-8.03-7.66-11.47-10.4-4.72-3.76-9.29-7.52-14.45-10.65-3.68-2.23-19.69-11.61-20.93-2.36-.48,3.58,2.95,7.25,4.91,9.9,3.41,4.6,7.81,8.8,12.6,11.95,4.48,2.95,9.1,4.42,14.4,5.09,3.53.44,8.47,1.16,11.82-.61,10.99,6.78,22.15,13.37,33.48,19.68-1.97,0-4.01-.21-5.94-.39-.02,0-.02-.03-.04-.03-2.23-.92-5.09-.69-7.66-.25-3.5.03-7,.25-10.48.74-4.29.61-13.49,1.67-16.62,6.13-.9-.33-1.76,2.02-1.05,2.53.01,0,.03.02.04.03-.02.13-.04.26-.05.39-.59,8.67,14.8,8,20.12,7.05,4.93-.88,9.55-3.19,14-5.41,4.03-2.01,8.64-4.7,11.2-8.53.13-.03.25-.07.38-.11,6.3,3.46,12.64,6.82,19.03,10.08.23.18.44.38.68.55.16.12.33.1.49.04.16.08.32.16.47.24.3.36.64.68,1.02.91.18.11.36.03.53-.14,6.6,3.31,13.24,6.5,19.93,9.55-2.53-.42-5.1-1.18-7.59-1.43-2.33-.23-4.59-.27-6.93-.31-5.66-.11-11.01,1.1-16.21,3.34-1.96.84-4.3,2.32-6.01,4.13-1.26.41-2.28,1.16-1.81,2.61-.91,2.04-.72,4.28,1.67,6.4,6.83,6.07,15.99,1.73,22.88-1.45,4.03-1.86,13.03-5.2,16.13-10.28.04,0,.07,0,.11,0,.49.01.92-.81,1.02-1.56,14.7,6.52,29.81,11.88,45.16,16.66-2.13.07-4.25-.05-6.38.13-5.78.5-11.52,1.77-16.99,3.7-4.05,1.43-13.59,6.9-8.87,12.53,5.68,6.76,17.1.21,22.91-2.73,4.45-2.26,9.34-4.52,12.19-8.83.43-.64.9-1.46,1.27-2.34.83-.08,1.62-.23,2.17-.56,13.06,3.79,26.37,6.62,40.04,6.63.9,0,1.58-2.73.45-2.73-14.48-.01-28.59-3.27-42.38-7.42Z"/>
          <g>
            <path class="cls-6" d="M2254.07,760.62c6.68-1.39,13.35-2.77,20.03-4.17,14.02-2.94,28.1-5.61,42.03-8.91,10.99-2.61,21.57-6.53,30.36-14.02,2.32-1.98,4.63-4.09,6.44-6.52,4.85-6.5,2.94-14.35-4.21-18.2-4.61-2.48-9.62-2.92-14.68-2.45-7.3.68-14.56,1.68-21.86,2.4-2.44.24-4.91.03-7.59-.53.77-.52,1.51-1.12,2.33-1.56,8.65-4.59,17.49-8.85,25.94-13.78,14.42-8.42,28.71-17.13,41.44-28.02,4.36-3.72,7.94-8.37,11.72-12.74,1.02-1.18,1.59-2.82,2.11-4.34,3.11-9.01-2.6-16.48-12.07-15.49-3.23.34-6.39,1.66-9.5,2.76-2.32.82-4.51,1.99-7.19,2.65.92-1.26,1.86-2.5,2.75-3.78,9.31-13.36,17.23-27.45,22.37-42.96,1.94-5.85,3.34-11.86,2.07-18.08-1.47-7.22-8.1-10.72-14.57-7.25-3.52,1.88-6.93,4.54-9.43,7.63-7.11,8.82-13.82,17.98-20.51,27.13-6.04,8.26-11.81,16.72-17.78,25.03-1.47,2.04-3.26,3.84-4.91,5.75-.3-.07-.6-.14-.89-.21-.33-3.14-.86-6.27-.95-9.42-.19-6.98.07-13.98-.32-20.94-.2-3.59-.86-7.36-2.28-10.64-3.11-7.21-11.69-8.88-17.4-3.49-2.3,2.18-4.2,4.96-5.69,7.78-5.21,9.89-7.92,20.65-10.34,31.49-2.52,11.31-5.03,22.63-7.71,33.91-1.08,4.54-2.66,8.94-5.88,13.39-.65-1.82-1.32-3.07-1.55-4.4-1.38-8.24-2.38-16.55-4.09-24.72-1.07-5.12-2.67-10.25-4.91-14.97-3.04-6.4-9.36-9.18-15.18-7.59-3.56.98-6.46,3.18-8.01,6.35-2.5,5.09-4.89,10.33-6.43,15.77-3.63,12.85-4.32,26.18-5.6,39.41-1.27,13.14-2.53,26.33-6.94,38.9-1.34,3.83-3.31,7.46-5.13,11.11-.53,1.07-1.53,1.92-2.66,3.29-.65-3.11-1.2-5.64-1.7-8.18-1.64-8.35-3.16-16.72-4.97-25.03-.44-2.02-1.63-3.94-2.77-5.71-4.81-7.5-12.84-8.49-19.36-2.42-3.98,3.7-6.25,8.48-8.06,13.49-4.6,12.69-6.12,25.87-5.34,39.24.63,10.88,1.97,21.72,3.1,32.56.43,4.11-.79,7.38-3.67,10.4-7.48,7.85-16.85,12.93-26.1,18.18-3.04,1.72-6.21,3.21-9.25,4.91-3.13,1.76-4.29,4.28-3.5,7.17.75,2.74,3.1,4.77,6.43,4.28,4.25-.63,8.48-1.82,12.51-3.32,10.35-3.86,19.97-9.13,28.85-15.72.7-.52,1.99-1.01,2.65-.72,8.7,3.85,18,5.16,27.28,6.42,26.65,3.6,53.22,2.71,79.61-2.4,9.52-1.84,18.56-5.21,26.62-10.77,4.33-2.98,8.02-6.62,10.31-11.48,3.45-7.32,1.42-14.5-5.33-18.99-5.65-3.76-12.15-4.79-18.64-5.8-11.27-1.76-22.6-1.05-33.93-.79-2.68.06-5.37-.1-8.05-.16-.01-.24-.02-.49-.03-.73Z"/>
            <path class="cls-5" d="M2189.69,783.45c-2.18-7.32-11.12-39.48-7.44-62.09.19-1.17,1.28-1.96,2.47-1.77,1.17.19,1.97,1.29,1.77,2.47-3.29,20.22,4.31,49.6,6.91,58.76,3.03-2.19,6.04-4.43,9.05-6.74.14-.14.29-.27.47-.36,12.14-9.32,24.07-19.52,35.64-30.2,7.55-39.18,5.14-89.09,5.11-89.59-.06-1.18.85-2.19,2.04-2.25,1.18-.06,2.19.85,2.25,2.04.02.48,2.24,46.25-4.17,84.91,18.68-17.65,36.32-36.44,52.19-54.7.09-.2.18-.4.33-.57,2.31-2.63,2.73-21.84,1.8-38.13-.07-1.18.84-2.2,2.02-2.27,1.19-.07,2.2.84,2.27,2.02.33,5.86,1.02,21.22-.16,31.66,3.27-3.85,6.45-7.66,9.55-11.42.01-.03.01-.06.03-.09.15-.28.37-.51.61-.69,35.63-43.42,58.93-79.95,58.98-84.65-.11-1.17.74-2.21,1.92-2.33,1.18-.12,2.24.73,2.36,1.91.64,6.09-22.78,42.68-58.22,85.83,9.44,2.13,28.54-3.09,35.8-5.56,1.12-.38,2.34.22,2.72,1.34.38,1.12-.22,2.34-1.34,2.72-2.67.91-23.2,7.67-36.02,6.06-1.51-.19-2.9-.51-4.15-.96-16.18,19.5-34.7,40.17-54.5,59.89,31.33-.73,61.67-6.09,61.98-6.15,1.17-.21,2.28.57,2.49,1.74.21,1.17-.57,2.28-1.74,2.49-.32.06-32.75,5.79-65.37,6.27-.1,0-.2,0-.3-.02-.38-.05-.71-.22-1-.44-15.52,15.23-31.77,29.79-48.23,42.67,23.8,12.08,76.65,8.44,77.2,8.4,1.18-.09,2.21.8,2.3,1.99.09,1.18-.8,2.21-1.99,2.3-1.58.12-26.6,1.84-50.21-1.14-11.7-1.48-23.01-4.13-31-8.69-9.3,7.12-18.65,13.68-27.96,19.49-.44.27-.93.37-1.4.31-.62-.08-1.2-.42-1.56-.99-.63-1.01-.32-2.33.68-2.96,5.29-3.3,10.56-6.83,15.8-10.53Z"/>
          </g>
          <g>
            <path class="cls-8" d="M2308.69,1112.38c-6.26-2.96-12.53-5.91-18.79-8.88-13.15-6.24-26.42-12.23-39.39-18.81-10.24-5.19-19.75-11.58-26.65-21.07-1.82-2.51-3.6-5.15-4.81-7.98-3.24-7.58.51-14.87,8.49-16.98,5.14-1.36,10.19-.59,15.08,1.08,7.05,2.41,13.98,5.13,21.02,7.57,2.35.82,4.85,1.2,7.62,1.28-.64-.7-1.22-1.47-1.93-2.09-7.45-6.59-15.17-12.91-22.34-19.79-12.24-11.75-24.28-23.75-34.26-37.53-3.42-4.71-5.85-10.16-8.54-15.37-.73-1.41-.9-3.17-1.05-4.79-.92-9.64,6.49-15.66,15.61-12.43,3.11,1.1,5.91,3.16,8.73,4.99,2.09,1.36,3.98,3.04,6.47,4.32-.61-1.46-1.24-2.91-1.82-4.39-6.01-15.41-10.49-31.21-11.87-47.76-.52-6.24-.48-12.51,2.26-18.36,3.17-6.78,10.55-8.66,16.12-3.7,3.02,2.7,5.77,6.14,7.49,9.78,4.92,10.41,9.37,21.04,13.8,31.68,4,9.6,7.68,19.32,11.61,28.95.96,2.36,2.31,4.57,3.48,6.85.31,0,.62,0,.93,0,1.07-3.02,2.34-5.99,3.17-9.08,1.85-6.85,3.26-13.82,5.31-20.61,1.06-3.5,2.61-7.07,4.78-9.96,4.79-6.38,13.66-5.99,18.02.7,1.76,2.7,2.97,5.9,3.77,9.04,2.79,11.01,2.91,22.28,2.72,33.56-.2,11.78-.42,23.55-.45,35.33-.01,4.74.5,9.47,2.62,14.62,1.08-1.64,2.04-2.72,2.57-3.97,3.33-7.81,6.29-15.78,9.92-23.44,2.27-4.8,5.08-9.49,8.41-13.61,4.53-5.6,11.44-6.84,16.8-3.88,3.28,1.81,5.62,4.68,6.41,8.18,1.26,5.62,2.37,11.37,2.6,17.11.53,13.56-1.97,26.89-3.85,40.25-1.87,13.28-3.77,26.61-2.4,40.07.42,4.11,1.5,8.16,2.43,12.2.27,1.19,1.05,2.26,1.85,3.88,1.38-2.92,2.52-5.29,3.62-7.68,3.61-7.86,7.1-15.77,10.86-23.55.91-1.89,2.55-3.5,4.1-4.98,6.54-6.26,14.7-5.33,19.7,2.22,3.05,4.6,4.15,9.87,4.75,15.25,1.52,13.63-.12,27.01-4.06,40.03-3.21,10.59-7.12,20.98-10.81,31.43-1.4,3.96-.97,7.47,1.15,11.14,5.52,9.54,13.56,16.78,21.46,24.17,2.59,2.42,5.37,4.64,7.97,7.05,2.67,2.48,3.22,5.25,1.75,7.92-1.39,2.53-4.2,3.98-7.37,2.7-4.05-1.63-7.94-3.82-11.57-6.26-9.3-6.27-17.55-13.77-24.76-22.39-.57-.68-1.72-1.47-2.44-1.34-9.51,1.73-19.01.81-28.47-.16-27.18-2.79-53.21-10-78.06-21.32-8.97-4.09-17.09-9.57-23.73-16.97-3.57-3.98-6.35-8.45-7.45-13.79-1.66-8.06,2.05-14.66,9.79-17.49,6.47-2.37,13.14-1.84,19.79-1.29,11.55.95,22.58,4.34,33.7,7.3,2.63.7,5.33,1.18,7.99,1.75.07-.24.14-.47.21-.71Z"/>
            <path class="cls-5" d="M2366.85,1150.25c3.89-6.71,20.38-36.35,22.13-59.56.09-1.2-.8-2.24-2.01-2.34-1.2-.09-2.25.81-2.34,2.01-1.56,20.75-16.06,47.97-20.81,56.39-2.47-2.88-4.91-5.82-7.33-8.81-.11-.18-.23-.33-.38-.47-9.77-12.1-19.13-25-28.02-38.31,1.87-40.5,16.13-89.21,16.27-89.7.34-1.16-.32-2.37-1.48-2.71-1.15-.34-2.37.32-2.71,1.48-.14.47-13.22,45.15-16.09,84.86-14.25-21.88-27.2-44.64-38.53-66.44-.04-.22-.08-.44-.19-.64-1.65-3.15,2.5-22.22,7.29-38.09.35-1.15-.3-2.37-1.46-2.72-1.16-.35-2.37.3-2.72,1.46-1.73,5.71-6.06,20.72-7.38,31.31-2.31-4.58-4.55-9.1-6.71-13.55,0-.03,0-.06,0-.1-.09-.32-.24-.59-.44-.82-24.86-51.37-39.18-93-38.11-97.65.38-1.13-.21-2.36-1.34-2.76-1.14-.4-2.38.19-2.79,1.33-2.08,5.87,12.35,47.57,37.08,98.63-9.83-.14-27.45-9.84-34.04-14.01-1.02-.64-2.37-.34-3.01.68-.64,1.02-.34,2.37.68,3.01,2.42,1.53,21.09,13.1,34.13,14.55,1.54.17,2.98.18,4.33.04,11.34,23.11,24.72,47.94,39.57,72.13-30.77-8.18-59.46-20.69-59.75-20.82-1.1-.48-2.39.02-2.88,1.12-.48,1.1.02,2.39,1.12,2.88.31.13,30.97,13.51,63.08,21.75.1.03.2.04.3.06.39.04.75-.05,1.09-.2,11.71,18.74,24.28,36.99,37.48,53.63-26.38,6.27-77.72-9.91-78.25-10.08-1.15-.37-2.38.27-2.74,1.42-.37,1.15.27,2.38,1.42,2.74,1.53.49,25.83,8.15,49.86,10.83,11.91,1.33,23.71,1.4,32.68-1.2,7.49,9.24,15.16,17.95,22.98,25.91.37.37.83.59,1.31.64.63.07,1.29-.13,1.77-.61.86-.84.87-2.23.03-3.09-4.43-4.52-8.8-9.25-13.1-14.16Z"/>
          </g>
          <g>
            <path class="cls-7" d="M2569.04,863.71c-6.47-4.71-12.94-9.42-19.41-14.14-13.57-9.92-27.34-19.59-40.64-29.86-10.49-8.1-19.91-17.41-25.69-29.68-1.53-3.24-2.97-6.62-3.74-10.09-2.04-9.3,3.8-16.77,13.3-17.43,6.13-.43,11.7,1.53,16.88,4.48,7.48,4.25,14.76,8.84,22.22,13.14,2.49,1.43,5.24,2.41,8.38,3.1-.57-.93-1.07-1.93-1.73-2.79-7.03-9.09-14.43-17.93-21.08-27.29-11.35-15.98-22.42-32.2-30.77-50-2.86-6.09-4.45-12.79-6.37-19.29-.52-1.75-.34-3.79-.16-5.67,1.04-11.14,10.75-16.37,20.4-10.73,3.29,1.92,6.03,4.87,8.82,7.55,2.08,1.99,3.86,4.31,6.41,6.3-.37-1.79-.78-3.57-1.11-5.37-3.5-18.79-5.16-37.69-3.15-56.77.76-7.19,2.16-14.3,6.53-20.34,5.06-7.01,13.84-7.55,19.09-.71,2.85,3.71,5.22,8.21,6.39,12.72,3.34,12.87,6.08,25.91,8.81,38.93,2.46,11.76,4.55,23.59,6.92,35.37.58,2.89,1.63,5.69,2.47,8.53.35.07.7.14,1.06.21,1.87-3.2,3.95-6.29,5.56-9.61,3.58-7.37,6.69-14.98,10.48-22.24,1.95-3.74,4.48-7.46,7.58-10.28,6.81-6.21,16.8-3.85,20.3,4.68,1.41,3.44,2.1,7.34,2.32,11.08.78,13.1-1.52,25.92-4.17,38.68-2.77,13.32-5.57,26.64-8.15,40-1.04,5.37-1.48,10.85-.18,17.16,1.58-1.63,2.9-2.64,3.78-3.96,5.46-8.14,10.55-16.55,16.32-24.46,3.62-4.96,7.81-9.68,12.49-13.63,6.34-5.37,14.46-5.29,19.9-.78,3.33,2.77,5.37,6.52,5.5,10.67.21,6.65.23,13.42-.75,19.97-2.33,15.5-8.04,30.09-13.07,44.85-5,14.67-10.03,29.38-11.39,44.96-.42,4.75-.06,9.58.12,14.37.05,1.41.71,2.79,1.26,4.81,2.2-3.02,4.01-5.45,5.77-7.93,5.79-8.14,11.47-16.36,17.42-24.38,1.44-1.94,3.65-3.42,5.73-4.77,8.77-5.69,17.84-2.87,21.88,6.77,2.47,5.88,2.58,12.09,2.1,18.33-1.22,15.8-5.97,30.63-13.26,44.56-5.94,11.33-12.61,22.27-19.06,33.33-2.44,4.19-2.72,8.27-1.1,12.9,4.21,12.02,11.77,21.97,19.13,32.07,2.41,3.31,5.09,6.43,7.52,9.73,2.5,3.39,2.52,6.66.28,9.37-2.13,2.56-5.62,3.61-8.95,1.47-4.24-2.73-8.19-6.05-11.78-9.61-9.2-9.13-16.94-19.42-23.26-30.77-.5-.9-1.64-2.04-2.49-2.05-11.17-.09-21.75-3.19-32.28-6.33-30.25-9.04-58.23-22.84-83.99-41.07-9.29-6.57-17.33-14.55-23.26-24.39-3.19-5.29-5.38-10.96-5.48-17.26-.15-9.5,5.5-16.2,14.89-17.74,7.86-1.28,15.31.75,22.74,2.81,12.9,3.57,24.68,9.81,36.67,15.57,2.84,1.36,5.79,2.49,8.69,3.72.13-.25.26-.51.39-.76Z"/>
            <path class="cls-5" d="M2626.86,919.26c5.87-6.78,30.99-36.85,37.98-62.81.36-1.34-.42-2.72-1.78-3.09-1.34-.36-2.73.43-3.09,1.78-6.26,23.22-28.6,50.97-35.81,59.5-2.18-3.8-4.32-7.66-6.42-11.58-.09-.22-.18-.43-.33-.61-8.47-15.84-16.31-32.51-23.52-49.54,10.87-45.56,37.59-97.77,37.86-98.29.64-1.24.15-2.76-1.09-3.4-1.23-.63-2.76-.15-3.39,1.09-.26.5-24.76,48.38-36.6,92.83-11.45-27.91-21.23-56.54-29.36-83.74,0-.26,0-.51-.07-.77-1.2-3.93,7.64-24.68,16.51-41.66.65-1.24.17-2.76-1.07-3.4-1.24-.65-2.76-.17-3.4,1.07-3.19,6.11-11.36,22.2-15.14,33.94-1.64-5.69-3.2-11.31-4.69-16.83,0-.04.02-.07.01-.11-.03-.38-.15-.72-.32-1.03-17.11-63.68-24.36-114.01-22.15-119.06.68-1.2.27-2.72-.92-3.42-1.2-.7-2.74-.3-3.45.91-3.63,6.21,3.73,56.66,20.77,119.96-11.13-2.28-29.03-17.11-35.61-23.26-1.01-.95-2.61-.9-3.56.12-.95,1.02-.9,2.61.12,3.56,2.42,2.26,21.1,19.43,35.59,23.89,1.71.53,3.35.86,4.9.98,7.88,28.68,17.69,59.75,29.32,90.41-33.16-15.93-63.01-36.34-63.32-36.55-1.14-.79-2.72-.5-3.51.65-.79,1.15-.5,2.72.65,3.51.32.22,32.22,22.03,66.89,38.32.11.05.22.09.33.13.43.13.86.11,1.28.01,9.24,23.8,19.57,47.23,30.94,68.96-31.29,1.41-86.06-28.04-86.64-28.35-1.22-.67-2.76-.21-3.42,1.02-.66,1.22-.21,2.75,1.02,3.42,1.63.89,27.56,14.83,54.25,23.07,13.23,4.08,26.61,6.71,37.35,5.7,6.5,12.11,13.33,23.64,20.48,34.37.33.5.82.85,1.35,1.01.7.22,1.49.13,2.14-.31,1.16-.77,1.47-2.34.7-3.5-4.06-6.08-7.99-12.4-11.81-18.9Z"/>
          </g>
          <path class="cls-8" d="M2802.96,1028.15c2.77-8.49,5.78-16.91,8.27-25.48,3.99-13.74,5.03-27.96,6.18-42.14,1.68-20.7,8.45-39.79,19.61-57.12,8.76-13.61,20.68-24.19,35.18-31.64,1.84-.95,3.89-1.69,5.92-2.05,5.37-.95,9.66,2.82,8.48,8.1-.98,4.37-2.99,8.63-5.18,12.59-10.32,18.61-20.39,37.33-29.7,56.49-6.24,12.85-13.89,25.02-20.96,37.47-5.78,10.16-10.31,20.85-14.09,31.89-1.22,3.55-2.67,7.03-3.61,10.68,5.3-7.58,10.56-15.19,15.91-22.74,11.33-15.99,22.88-31.8,37.78-44.78,14.04-12.23,29.82-21.2,48.04-25.57,1.94-.46,3.96-.72,5.95-.79,5.98-.23,9.42,4.11,6.95,9.52-1.94,4.26-4.6,8.49-7.87,11.81-7.37,7.46-14.89,14.88-23.12,21.33-13.73,10.78-27.82,21.12-42.2,31.03-13.06,9-24.63,19.56-35.78,30.72-3.39,3.39-6.05,7.12-7.91,11.44-3.73,8.67-7.29,17.41-10.98,26.1-.62,1.47-1.16,3.33-2.34,4.13-1.38.94-3.67,1.62-5.09,1.1-1.25-.46-2.45-2.68-2.57-4.2-.18-2.31.32-4.78,1.01-7.04,3.44-11.3,1.58-21.07-6.33-30.3-7.68-8.96-14.5-18.71-19.15-29.74-2.84-6.74-5.04-13.61-5.08-21.01,0-1.14.03-2.3.21-3.42.84-5.01,4.62-7.17,9.28-5.18,5.2,2.22,9.23,6.05,12.99,10.16,9.78,10.68,16.07,23.13,18.91,37.32.07.36.22.71.33,1.07.31.09.62.17.93.26Z"/>
          <g>
            <path class="cls-8" d="M2888.55,734.24c-.54.56-1.38,2.21-2.6,2.58-13.06,3.92-19.98,13.59-24.87,25.5-2.11,5.15-3.03,10.33-2.81,15.81.14,3.41.19,6.83.12,10.25-.05,2.72-1.49,4.47-3.65,4.62-2.54.19-3.7-1.41-4.43-3.58-2.52-7.49-4.76-15.09-7.69-22.42-6.17-15.42-10.61-17.89-28.72-18.53-1.16-.04-2.33.22-3.49.17-2.12-.09-4-.71-4.57-3.09-.49-2.08.58-3.67,3.16-4.67,4.11-1.59,8.31-2.94,12.34-4.7,13.18-5.76,20.1-15.93,20.91-30.27.15-2.66.33-5.32.52-7.98.15-2.16,1.01-3.92,3.15-4.66,2.47-.86,4.34.66,5.28,3.87,1.8,6.15,3.55,12.31,5.6,18.38.9,2.65,2.27,5.2,3.79,7.56,3.41,5.28,8.84,6.45,14.62,6.53,2.74.04,5.49-.23,8.24-.28,3.09-.06,5.08,1.53,5.09,4.91Z"/>
            <path class="cls-8" d="M2958.6,785.4c-.27.28-.69,1.11-1.3,1.29-6.53,1.96-9.99,6.79-12.43,12.75-1.06,2.58-1.52,5.16-1.41,7.91.07,1.71.1,3.42.06,5.12-.03,1.36-.75,2.23-1.82,2.31-1.27.09-1.85-.7-2.21-1.79-1.26-3.74-2.38-7.55-3.85-11.21-3.08-7.71-5.31-8.94-14.36-9.27-.58-.02-1.17.11-1.75.09-1.06-.04-2-.35-2.28-1.54-.25-1.04.29-1.84,1.58-2.34,2.05-.8,4.16-1.47,6.17-2.35,6.59-2.88,10.05-7.96,10.45-15.14.08-1.33.17-2.66.26-3.99.07-1.08.51-1.96,1.58-2.33,1.23-.43,2.17.33,2.64,1.94.9,3.07,1.77,6.16,2.8,9.19.45,1.32,1.14,2.6,1.9,3.78,1.7,2.64,4.42,3.22,7.31,3.26,1.37.02,2.74-.12,4.12-.14,1.54-.03,2.54.76,2.55,2.45Z"/>
          </g>
          <g>
            <path class="cls-8" d="M2832.7,274.64c-6.63.04-10.71-3.54-10.92-9.59-.17-4.84,8.13-12.48,13.45-12.38,5.43.11,9.66,4.11,9.69,9.18.04,6.69-5.75,12.75-12.22,12.78Z"/>
            <path class="cls-8" d="M2851.74,218.28c9.82-4.92,16.42-1.59,19.27,9.71-2.3,4.18-5.3,7.35-10.09,8.96-4.59,1.54-7.99.05-11.08-2.94-3.04-2.94-2.45-6.41-.93-9.84.88-1.99,1.88-3.93,2.83-5.89Z"/>
            <path class="cls-8" d="M2757.66,209.71c.3-1.06.51-2.16.92-3.17,1.94-4.78,4.83-9.36,10.18-9.74,5.03-.37,8.21,3.78,10.67,7.95-.7,3.17-.63,6.85-2.29,9.39-2.64,4.05-6.9,6.43-12.12,5.41-5.31-1.04-6.62-5.27-7.35-9.83Z"/>
            <path class="cls-8" d="M2801.75,203.4c1.04-.29,2.08-.54,3.11-.86,8.11-2.52,9.77-1.9,14.72,5.54-1.47,3.78-2.58,7.76-4.51,11.3-1.81,3.31-5.12,5.3-9.03,4.4-4.49-1.04-8.71-6.9-7.93-11.34.55-3.13,2.38-6.03,3.64-9.03Z"/>
            <path class="cls-8" d="M2692.95,231.37c-.13-4.58-.68-9.06,3.54-12.66,6.81-5.79,13.15-5.01,17.85,2.69.37,5.87-1.14,10.65-7.07,13.22-5.79,2.51-9.33,1.79-14.32-3.25Z"/>
            <path class="cls-8" d="M2796.7,297.85c-6.59.11-11.3-4.02-11.65-10.21-.3-5.23,5.1-10.8,10.46-10.8,5.16,0,11.36,6.02,11.48,11.15.11,4.72-5.17,9.77-10.29,9.86Z"/>
            <path class="cls-8" d="M2749.13,234.18c.13,7.25-4.01,12.18-10.31,12.26-5.81.08-9.16-3.63-9.18-10.18-.02-6.59,5.48-12.21,11.89-12.14,4.03.04,7.5,4.63,7.59,10.06Z"/>
            <path class="cls-8" d="M2758.48,290.04c-.06,6.61-5.43,11.72-12.26,11.66-3.82-.03-7.89-4.62-7.85-8.84.07-6.59,5.08-12.29,10.78-12.29,5.1,0,9.37,4.35,9.32,9.47Z"/>
            <path class="cls-8" d="M2710.47,256.13c5.94-.13,10.48,3.67,10.69,8.93.21,5.45-4.27,10.14-9.6,10.05-6.72-.11-10.43-3.29-10.48-8.96-.05-6.12,3.48-9.89,9.39-10.01Z"/>
            <path class="cls-8" d="M2777.68,270.93c-5.25-.08-8.56-3.63-8.51-9.11.04-5.47,4.57-10.13,9.86-10.17,4.1-.03,8.54,4.87,8.58,9.46.04,5.67-4.25,9.91-9.93,9.82Z"/>
            <path class="cls-8" d="M2789.29,234.19c-.17,5.27-4.14,8.79-9.92,8.8-5.29,0-8.22-2.91-8.12-8.11.11-6.12,4.69-10.33,10.74-9.91,4.79.34,7.47,3.72,7.29,9.21Z"/>
            <path class="cls-8" d="M2821.32,246.39c-4.59.15-9.93-4.16-9.94-8.01,0-4.22,5.95-9.91,10.55-10.07,4.26-.16,8.55,4.49,8.61,9.33.06,4.27-4.51,8.6-9.23,8.75Z"/>
            <path class="cls-8" d="M2850.84,201.01c-7.2.08-11.53-4.14-11.44-11.12.07-5.2,4.64-9.59,10.15-9.77,5.48-.18,10.63,5.27,10.82,11.43.2,6.66-2.54,9.39-9.54,9.46Z"/>
            <path class="cls-8" d="M2732.05,196.36c-6.77.05-9.67-2.98-9.87-10.3-.14-5.11,4.71-10.18,9.8-10.24,4.66-.05,11.1,6,11.24,10.56.15,4.77-5.65,9.94-11.18,9.98Z"/>
            <path class="cls-8" d="M2788.9,168.88c.03,6.66-2.67,9.15-9.81,9.02-4.68-.08-10.52-5.59-10.51-9.94,0-4.28,5.26-10.01,9.36-10.19,5.88-.27,10.93,4.85,10.96,11.11Z"/>
            <path class="cls-8" d="M2822.22,167.38c-.05,4.9-5.76,10.43-10.86,10.52-5.11.09-9.91-4.17-10.06-8.93-.17-5.53,5.49-11.32,10.93-11.16,6.25.19,10.06,3.83,9.99,9.57Z"/>
          </g>
        </g>
      </g>
      <g>
        <path class="cls-7" d="M2569.04,863.71c-6.47-4.71-12.94-9.42-19.41-14.14-13.57-9.92-27.34-19.59-40.64-29.86-10.49-8.1-19.91-17.41-25.69-29.68-1.53-3.24-2.97-6.62-3.74-10.09-2.04-9.3,3.8-16.77,13.3-17.43,6.13-.43,11.7,1.53,16.88,4.48,7.48,4.25,14.76,8.84,22.22,13.14,2.49,1.43,5.24,2.41,8.38,3.1-.57-.93-1.07-1.93-1.73-2.79-7.03-9.09-14.43-17.93-21.08-27.29-11.35-15.98-22.42-32.2-30.77-50-2.86-6.09-4.45-12.79-6.37-19.29-.52-1.75-.34-3.79-.16-5.67,1.04-11.14,10.75-16.37,20.4-10.73,3.29,1.92,6.03,4.87,8.82,7.55,2.08,1.99,3.86,4.31,6.41,6.3-.37-1.79-.78-3.57-1.11-5.37-3.5-18.79-5.16-37.69-3.15-56.77.76-7.19,2.16-14.3,6.53-20.34,5.06-7.01,13.84-7.55,19.09-.71,2.85,3.71,5.22,8.21,6.39,12.72,3.34,12.87,6.08,25.91,8.81,38.93,2.46,11.76,4.55,23.59,6.92,35.37.58,2.89,1.63,5.69,2.47,8.53.35.07.7.14,1.06.21,1.87-3.2,3.95-6.29,5.56-9.61,3.58-7.37,6.69-14.98,10.48-22.24,1.95-3.74,4.48-7.46,7.58-10.28,6.81-6.21,16.8-3.85,20.3,4.68,1.41,3.44,2.1,7.34,2.32,11.08.78,13.1-1.52,25.92-4.17,38.68-2.77,13.32-5.57,26.64-8.15,40-1.04,5.37-1.48,10.85-.18,17.16,1.58-1.63,2.9-2.64,3.78-3.96,5.46-8.14,10.55-16.55,16.32-24.46,3.62-4.96,7.81-9.68,12.49-13.63,6.34-5.37,14.46-5.29,19.9-.78,3.33,2.77,5.37,6.52,5.5,10.67.21,6.65.23,13.42-.75,19.97-2.33,15.5-8.04,30.09-13.07,44.85-5,14.67-10.03,29.38-11.39,44.96-.42,4.75-.06,9.58.12,14.37.05,1.41.71,2.79,1.26,4.81,2.2-3.02,4.01-5.45,5.77-7.93,5.79-8.14,11.47-16.36,17.42-24.38,1.44-1.94,3.65-3.42,5.73-4.77,8.77-5.69,17.84-2.87,21.88,6.77,2.47,5.88,2.58,12.09,2.1,18.33-1.22,15.8-5.97,30.63-13.26,44.56-5.94,11.33-12.61,22.27-19.06,33.33-2.44,4.19-2.72,8.27-1.1,12.9,4.21,12.02,11.77,21.97,19.13,32.07,2.41,3.31,5.09,6.43,7.52,9.73,2.5,3.39,2.52,6.66.28,9.37-2.13,2.56-5.62,3.61-8.95,1.47-4.24-2.73-8.19-6.05-11.78-9.61-9.2-9.13-16.94-19.42-23.26-30.77-.5-.9-1.64-2.04-2.49-2.05-11.17-.09-21.75-3.19-32.28-6.33-30.25-9.04-58.23-22.84-83.99-41.07-9.29-6.57-17.33-14.55-23.26-24.39-3.19-5.29-5.38-10.96-5.48-17.26-.15-9.5,5.5-16.2,14.89-17.74,7.86-1.28,15.31.75,22.74,2.81,12.9,3.57,24.68,9.81,36.67,15.57,2.84,1.36,5.79,2.49,8.69,3.72.13-.25.26-.51.39-.76Z"/>
        <path class="cls-5" d="M2626.86,919.26c5.87-6.78,30.99-36.85,37.98-62.81.36-1.34-.42-2.72-1.78-3.09-1.34-.36-2.73.43-3.09,1.78-6.26,23.22-28.6,50.97-35.81,59.5-2.18-3.8-4.32-7.66-6.42-11.58-.09-.22-.18-.43-.33-.61-8.47-15.84-16.31-32.51-23.52-49.54,10.87-45.56,37.59-97.77,37.86-98.29.64-1.24.15-2.76-1.09-3.4-1.23-.63-2.76-.15-3.39,1.09-.26.5-24.76,48.38-36.6,92.83-11.45-27.91-21.23-56.54-29.36-83.74,0-.26,0-.51-.07-.77-1.2-3.93,7.64-24.68,16.51-41.66.65-1.24.17-2.76-1.07-3.4-1.24-.65-2.76-.17-3.4,1.07-3.19,6.11-11.36,22.2-15.14,33.94-1.64-5.69-3.2-11.31-4.69-16.83,0-.04.02-.07.01-.11-.03-.38-.15-.72-.32-1.03-17.11-63.68-24.36-114.01-22.15-119.06.68-1.2.27-2.72-.92-3.42-1.2-.7-2.74-.3-3.45.91-3.63,6.21,3.73,56.66,20.77,119.96-11.13-2.28-29.03-17.11-35.61-23.26-1.01-.95-2.61-.9-3.56.12-.95,1.02-.9,2.61.12,3.56,2.42,2.26,21.1,19.43,35.59,23.89,1.71.53,3.35.86,4.9.98,7.88,28.68,17.69,59.75,29.32,90.41-33.16-15.93-63.01-36.34-63.32-36.55-1.14-.79-2.72-.5-3.51.65-.79,1.15-.5,2.72.65,3.51.32.22,32.22,22.03,66.89,38.32.11.05.22.09.33.13.43.13.86.11,1.28.01,9.24,23.8,19.57,47.23,30.94,68.96-31.29,1.41-86.06-28.04-86.64-28.35-1.22-.67-2.76-.21-3.42,1.02-.66,1.22-.21,2.75,1.02,3.42,1.63.89,27.56,14.83,54.25,23.07,13.23,4.08,26.61,6.71,37.35,5.7,6.5,12.11,13.33,23.64,20.48,34.37.33.5.82.85,1.35,1.01.7.22,1.49.13,2.14-.31,1.16-.77,1.47-2.34.7-3.5-4.06-6.08-7.99-12.4-11.81-18.9Z"/>
      </g>
    </g>
    <g class="cls-13">
      <rect class="cls-4" x="3304.43" y="189.75" width="302.74" height="899.69"/>
      <path class="cls-9" d="M3326.67,686.49c5.91-19.89,3.06-41.79,10.39-61.2,3.82-10.1,10.35-19.16,18.74-25.97,8.5-6.9,18.89-11.59,26-19.92,14.79-17.33,10.57-43.72,19.03-64.88,11.64-29.1,36.01-46.18,52.88-76.54,3.18,14.3,6.35,28.6,9.53,42.9,5.21,23.45,9.99,49.71-2.69,70.12-6.89,11.1-18.34,19.13-23.72,31.03-6.81,15.05-2.45,32.66-4.94,48.99-2.15,14.08-9.68,27.26-20.7,36.28-8.49,6.94-19.04,11.6-25.71,20.29-6.53,8.51-8.34,19.58-11.84,29.72-13.67,39.66-54.55,65.22-96.04,71.38-3.73.56-7.73.94-11.1-.76-5.78-2.91-7.2-10.99-4.76-16.98,2.44-5.99,7.65-10.33,12.68-14.38,20.86-16.8,44.56-44.19,52.24-70.09Z"/>
      <path class="cls-5" d="M3260.51,786.85c-.13-.19-.25-.39-.35-.61-.68-1.6.07-3.46,1.67-4.14,29.51-12.55,61.57-42.78,77.96-73.52,5.7-10.69,13.28-19.84,20.6-28.69,4.91-5.93,9.99-12.06,14.43-18.58,7.27-10.67,11.87-23.11,16.31-35.15,1.17-3.16,2.33-6.31,3.54-9.43,3.75-9.68,8.79-18.2,13.66-26.44,2.28-3.85,4.63-7.83,6.84-11.9,8.54-15.74,18.9-36.8,23.28-60.06,3.09-16.4,4.91-33.03,5.41-49.43.05-1.74,1.51-3.11,3.25-3.06,1.74.05,3.11,1.51,3.06,3.25-.51,16.73-2.37,33.68-5.52,50.41-4.54,24.13-15.18,45.76-23.93,61.9-2.27,4.18-4.65,8.21-6.95,12.1-4.96,8.39-9.64,16.31-13.2,25.51-1.2,3.09-2.35,6.22-3.51,9.34-4.58,12.39-9.31,25.21-17.02,36.52-4.61,6.76-9.78,13.01-14.78,19.05-7.45,9-14.49,17.51-19.89,27.63-17.28,32.4-49.85,63.09-81.06,76.36-1.38.59-2.95.11-3.79-1.06Z"/>
      <path class="cls-10" d="M3771.94,549.15c-14.21-27.31-40.61-66.35-70.79-76.44-12.31-4.12-25.99-3.62-37.78-9.05-13.11-6.03-21.91-18.4-31.66-29.04-7.14-7.8-16.05-15.15-25.94-17.92v101.45c1.47,1.63,2.82,3.38,3.88,5.4,2.82,5.38,3.63,11.68,6.74,16.9,6.11,10.22,19.46,13.64,31.36,13.11,11.89-.52,23.59-4.02,35.49-3.67,26.41.79,48.09,19.77,69.98,34.56,2.88,1.94,6.06,3.91,9.53,3.7,2.17-.13,4.21-1.13,5.95-2.42,10.71-7.95,9.41-24.74,3.25-36.58Z"/>
      <path class="cls-10" d="M3594.58,415.69c-8.68.98-17.02,6.17-25.58,4.49-5.58-1.09-10.16-4.94-14.36-8.78-17.58-16.1-35.59-35.66-59.39-36.96-8.46-.46-18.63,3.15-20.21,11.47-.57,3.04.14,6.17,1.06,9.12,3.83,12.41,11.25,23.68,21.13,32.11,9.9,8.44,22.68,14.69,28,26.55,4.1,9.15,2.89,20.08,7.41,29.03,6.8,13.45,23.59,17.75,38.4,20.55,12.56,2.38,26.49,5.78,34.72,14.89v-101.45c-3.61-1.01-7.34-1.45-11.18-1.01Z"/>
      <path class="cls-5" d="M3577.83,445.65c-21.04-13.16-39.49-25.84-56.41-38.77-1.32-1.01-3.22-.76-4.23.57-1,1.29-.76,3.21.57,4.23,17.07,13.05,35.67,25.84,56.88,39.1,10.87,6.8,21.17,12.84,31.13,18.34v-6.86c-8.96-5.01-18.22-10.52-27.93-16.59Z"/>
      <path class="cls-5" d="M3775.81,579.25c-16.28-26.19-38.47-49.1-64.16-66.24-15.88-10.59-33.44-17.66-50.41-24.5-9.65-3.89-19.64-7.9-29.17-12.52-8.53-4.13-17.25-8.69-26.29-13.75v6.86c8.09,4.46,15.97,8.59,23.67,12.32,9.72,4.71,19.8,8.76,29.55,12.69,16.69,6.72,33.96,13.67,49.32,23.92,24.98,16.67,46.55,38.94,62.39,64.41.88,1.42,2.74,1.85,4.16.97.37-.23.68-.53.91-.88.64-.95.7-2.24.06-3.28Z"/>
      <path class="cls-10" d="M3382.38,348.76c-7.99-9.28-19.31-15.48-26.25-25.57-7.71-11.22-8.88-25.49-11.64-38.82-2.76-13.33-8.54-27.65-20.94-33.26-6.63-3-14.62-3.22-20.62-7.02v145.77c9.15,4.44,19.08,7.34,27.67,12.8,21.02,13.39,29.43,39.23,40.03,61.79,1.39,2.97,3.03,6.09,5.94,7.6,1.82.94,3.96,1.12,6,.91,12.52-1.27,19.57-15.51,20.29-28.08,1.67-29-.88-73.37-20.47-96.13Z"/>
      <path class="cls-5" d="M3371.43,386.49c-7.75-16.25-18.57-30.45-29.03-44.19-5.95-7.81-12.1-15.89-17.6-24.23-7.34-11.12-14.55-23.23-21.88-36.72v11.65c5.7,10.08,11.38,19.48,17.13,28.2,5.61,8.51,11.82,16.66,17.82,24.55,10.29,13.5,20.92,27.47,28.42,43.19,12.2,25.57,18.93,54.03,19.47,82.31.03,1.57,1.33,2.82,2.9,2.79.42,0,.81-.1,1.16-.27.98-.46,1.65-1.47,1.63-2.63-.55-29.09-7.47-58.36-20.02-84.65Z"/>
      <path class="cls-3" d="M3595.97,912.62c-4.87-13.39-4.72-28.4-11.01-41.18-7-14.21-20.81-23.51-32.77-33.9-11.96-10.39-23.2-24.39-21.83-40.17.83-9.54,6.28-18.84,4.18-28.19-1.36-6.09-5.71-11.01-10.04-15.49-18.16-18.82-40.14-38.01-42.25-64.09-.75-9.27,2.92-20.53,12-22.49,3.32-.72,6.77-.02,10.03.9,13.72,3.85,26.3,11.66,35.83,22.26,9.54,10.61,16.76,24.46,29.93,29.95,10.15,4.23,22.11,2.59,32.05,7.29,14.95,7.07,20.15,25.37,23.65,41.53,3.5,16.16,8.52,34.46,23.36,41.75,5.98,2.94,12.92,3.64,18.73,6.91,11.38,6.41,15.52,20.96,15.29,34.02-.23,13.06-3.73,25.99-3,39.03,1.62,28.95,23.06,52.18,39.92,75.77,2.22,3.1,4.46,6.54,4.33,10.35-.08,2.38-1.11,4.65-2.48,6.6-8.42,11.98-26.87,11.03-40.03,4.62-30.37-14.81-73.94-42.64-85.89-75.46Z"/>
      <path class="cls-5" d="M3718.57,991.3c.37-.26.69-.61.94-1.03.92-1.58.39-3.61-1.18-4.53-28.39-16.64-53.44-39.66-72.44-66.58-11.68-16.56-19.8-35.29-27.65-53.41-4.58-10.58-9.33-21.52-14.77-32.05-9.61-18.6-21.13-37.98-35.21-59.23-15.15-22.88-29.72-42.92-44.52-61.27-1.15-1.42-3.27-1.63-4.65-.5-1.42,1.15-1.65,3.23-.5,4.65,14.67,18.19,29.11,38.06,44.15,60.77,13.94,21.05,25.34,40.22,34.84,58.61,5.34,10.33,10.03,21.16,14.57,31.64,7.98,18.43,16.24,37.48,28.32,54.6,19.54,27.69,45.3,51.37,74.5,68.48,1.16.68,2.56.57,3.59-.16Z"/>
      <path class="cls-6" d="M3687.55,658.08c-.04-.08-.05-.16-.1-.24-.27-.46-.61-.39-.93-.07-1.12-.34-2.25-.69-3.36-1.04-8.04-2.51-16.01-5.17-23.92-8.02.06-.43.02-.83-.19-1.06-3.39-3.86-4.77-11.19-5.56-16.05-.83-5.05-1.5-10.32-3.85-14.93-1.7-3.34-8.96-19.04-14.07-13.88-2.96,2.99-3.14,8.21-2.32,13.18-.26,1.15-.29,2.32.06,3.3.25.7.62,1.19,1.06,1.6.13.44.25.86.38,1.27.74,2.94,2.21,6.08,3.72,8.44,3.3,5.66,7.93,10.8,12.87,15.21-6.91-2.63-13.76-5.44-20.53-8.47,0-.03,0-.06-.01-.1-.15-.77-.54-.71-.92-.32-.16-.07-.31-.14-.47-.21-8.09-3.67-16.13-7.53-24.11-11.53-.12-.3-.36-.38-.61-.3-.16-.08-.32-.16-.48-.24-1.07-1.8-1.79-5.69-2.06-7.05-.02-.11-.03-.23-.05-.34.14-.38.22-.74.2-.97-.18-1.94-.44-3.87-.71-5.79,0-.03,0-.06,0-.09-.01-.61-.04-1.21-.07-1.81,0-.07,0-.15,0-.22,0-.03,0-.05,0-.08-.02-.32-.05-.63-.08-.95-.31-4.09-1.05-8.12-2.28-12.04-1.39-4.4-3.55-8.54-7.42-11.24-.81-.57-1.87-1.26-3.04-1.84-.77-1.04-1.8-1.68-3.02-1.06-1.31-.22-2.58-.07-3.6.78-4.96,4.11-2.73,12.77-.36,17.4,2.36,4.62,5.15,9.12,8.09,13.39.84,1.22,1.68,2.48,2.54,3.75.3.91.64,1.8,1.07,2.61-4.21-2.21-8.4-4.46-12.58-6.74-.05-.4-.22-.65-.56-.53-.09.03-.18.04-.27.07-13.54-7.43-26.88-15.24-40-23.29.21-.66.25-1.45.14-1.76-1.77-4.95-9.16-8.74-13.08-11.86-5.38-4.29-10.59-8.58-16.49-12.15-4.2-2.54-22.46-13.25-23.88-2.69-.55,4.08,3.36,8.27,5.6,11.3,3.89,5.25,8.91,10.04,14.37,13.63,5.11,3.36,10.38,5.04,16.42,5.81,4.03.51,9.66,1.32,13.49-.7,12.54,7.73,25.27,15.26,38.2,22.45-2.25,0-4.57-.24-6.78-.45-.02,0-.03-.03-.05-.04-2.54-1.05-5.8-.79-8.74-.28-4,.04-7.99.28-11.96.85-4.9.7-15.39,1.91-18.96,6.99-1.03-.38-2.01,2.31-1.2,2.89.02.01.03.02.05.04-.02.15-.04.29-.05.45-.67,9.89,16.88,9.13,22.96,8.04,5.62-1.01,10.89-3.63,15.97-6.17,4.59-2.29,9.85-5.36,12.78-9.73.15-.04.29-.08.43-.13,7.18,3.94,14.42,7.78,21.71,11.49.26.21.51.43.77.63.19.14.37.12.56.04.18.09.36.18.54.27.34.41.73.77,1.16,1.04.21.13.41.03.6-.16,7.53,3.78,15.11,7.42,22.73,10.89-2.88-.48-5.82-1.35-8.66-1.63-2.65-.27-5.23-.31-7.9-.36-6.45-.13-12.57,1.26-18.5,3.81-2.23.96-4.9,2.65-6.85,4.71-1.44.47-2.6,1.33-2.06,2.97-1.04,2.33-.83,4.88,1.9,7.3,7.79,6.92,18.24,1.98,26.1-1.65,4.6-2.12,14.87-5.94,18.4-11.72.04,0,.08,0,.12,0,.56.02,1.05-.92,1.16-1.77,16.77,7.44,34.01,13.55,51.52,19.01-2.42.07-4.84-.06-7.28.15-6.59.57-13.14,2.02-19.38,4.22-4.62,1.63-15.51,7.87-10.12,14.3,6.47,7.72,19.51.24,26.13-3.12,5.08-2.58,10.65-5.16,13.9-10.07.49-.73,1.03-1.67,1.45-2.67.94-.09,1.85-.26,2.48-.64,14.89,4.32,30.08,7.55,45.67,7.56,1.03,0,1.8-3.11.51-3.11-16.52-.01-32.61-3.73-48.35-8.47Z"/>
      <path class="cls-10" d="M3506.36,1035.21c-6.47-4.71-12.95-9.42-19.41-14.14-13.57-9.92-27.34-19.59-40.64-29.86-10.5-8.1-19.91-17.41-25.69-29.68-1.53-3.24-2.98-6.62-3.74-10.09-2.04-9.3,3.8-16.77,13.3-17.43,6.13-.43,11.7,1.53,16.88,4.48,7.48,4.25,14.76,8.84,22.22,13.14,2.49,1.43,5.24,2.41,8.38,3.1-.57-.93-1.07-1.93-1.73-2.79-7.03-9.09-14.43-17.92-21.08-27.29-11.35-15.98-22.42-32.2-30.77-50-2.86-6.09-4.45-12.79-6.37-19.29-.52-1.75-.34-3.79-.16-5.67,1.04-11.14,10.75-16.37,20.4-10.73,3.29,1.92,6.03,4.87,8.83,7.55,2.08,1.99,3.85,4.31,6.41,6.3-.37-1.79-.78-3.57-1.11-5.37-3.5-18.79-5.16-37.69-3.15-56.77.76-7.19,2.16-14.3,6.53-20.34,5.07-7.01,13.84-7.55,19.09-.71,2.85,3.72,5.22,8.21,6.39,12.72,3.34,12.87,6.08,25.91,8.81,38.93,2.46,11.76,4.55,23.59,6.92,35.37.58,2.89,1.63,5.69,2.47,8.53.35.07.7.14,1.06.21,1.87-3.2,3.95-6.29,5.57-9.61,3.58-7.37,6.69-14.98,10.48-22.24,1.95-3.74,4.48-7.46,7.58-10.28,6.81-6.2,16.8-3.85,20.3,4.68,1.41,3.44,2.1,7.34,2.32,11.08.78,13.1-1.52,25.92-4.17,38.68-2.77,13.32-5.57,26.64-8.15,40-1.04,5.37-1.48,10.85-.18,17.16,1.58-1.63,2.9-2.64,3.78-3.95,5.46-8.14,10.55-16.55,16.32-24.46,3.62-4.96,7.81-9.68,12.49-13.63,6.34-5.37,14.46-5.29,19.9-.77,3.33,2.76,5.37,6.52,5.5,10.67.21,6.65.23,13.42-.75,19.97-2.33,15.5-8.04,30.09-13.07,44.85-5,14.67-10.03,29.38-11.39,44.96-.42,4.75-.06,9.58.12,14.37.05,1.41.71,2.79,1.26,4.81,2.2-3.02,4.01-5.45,5.77-7.93,5.79-8.14,11.47-16.36,17.42-24.37,1.44-1.94,3.65-3.42,5.73-4.77,8.77-5.69,17.83-2.87,21.88,6.77,2.47,5.88,2.58,12.09,2.1,18.33-1.22,15.8-5.97,30.63-13.26,44.56-5.94,11.33-12.61,22.28-19.06,33.33-2.44,4.19-2.72,8.27-1.1,12.9,4.21,12.02,11.77,21.97,19.13,32.07,2.41,3.31,5.09,6.43,7.51,9.73,2.5,3.39,2.52,6.66.28,9.37-2.13,2.57-5.62,3.61-8.95,1.47-4.24-2.73-8.19-6.05-11.78-9.61-9.2-9.13-16.94-19.42-23.26-30.77-.5-.9-1.64-2.04-2.48-2.05-11.17-.09-21.75-3.19-32.28-6.33-30.25-9.04-58.23-22.85-83.99-41.07-9.29-6.57-17.33-14.55-23.26-24.39-3.19-5.29-5.38-10.96-5.48-17.26-.15-9.5,5.5-16.2,14.89-17.74,7.86-1.29,15.31.75,22.74,2.81,12.9,3.57,24.68,9.81,36.67,15.57,2.84,1.36,5.79,2.48,8.69,3.72.13-.25.26-.51.39-.76Z"/>
      <path class="cls-5" d="M3564.17,1090.76c5.87-6.78,30.99-36.85,37.98-62.81.36-1.34-.42-2.72-1.78-3.09-1.35-.36-2.73.43-3.09,1.78-6.26,23.22-28.6,50.97-35.81,59.5-2.18-3.8-4.32-7.66-6.42-11.58-.08-.22-.18-.43-.32-.61-8.47-15.84-16.31-32.51-23.52-49.54,10.87-45.56,37.59-97.77,37.86-98.29.64-1.24.15-2.76-1.09-3.4-1.23-.63-2.76-.15-3.4,1.09-.26.5-24.76,48.38-36.6,92.83-11.45-27.91-21.23-56.54-29.36-83.74,0-.25,0-.51-.07-.77-1.2-3.93,7.64-24.68,16.51-41.66.65-1.23.17-2.76-1.07-3.4-1.24-.65-2.76-.17-3.4,1.07-3.19,6.11-11.36,22.2-15.14,33.94-1.64-5.69-3.2-11.31-4.69-16.83,0-.04.02-.07.01-.11-.03-.38-.15-.72-.32-1.03-17.11-63.67-24.36-114.01-22.15-119.06.68-1.2.27-2.72-.92-3.42-1.2-.7-2.75-.3-3.45.9-3.63,6.21,3.73,56.66,20.77,119.96-11.13-2.28-29.03-17.1-35.61-23.26-1.01-.95-2.61-.9-3.56.12-.95,1.02-.9,2.61.12,3.56,2.42,2.26,21.1,19.43,35.59,23.89,1.71.53,3.35.86,4.9.98,7.88,28.68,17.69,59.75,29.33,90.41-33.16-15.93-63.01-36.34-63.32-36.55-1.15-.79-2.72-.5-3.51.65-.79,1.15-.5,2.72.65,3.51.32.22,32.22,22.03,66.89,38.32.11.05.22.09.33.13.43.13.86.11,1.28.01,9.24,23.8,19.57,47.23,30.94,68.96-31.29,1.41-86.06-28.04-86.63-28.35-1.23-.67-2.76-.21-3.42,1.02-.66,1.22-.21,2.75,1.01,3.42,1.63.89,27.56,14.83,54.25,23.07,13.23,4.08,26.61,6.71,37.35,5.7,6.5,12.11,13.33,23.64,20.48,34.37.34.5.82.85,1.35,1.01.7.22,1.49.13,2.14-.31,1.16-.77,1.47-2.34.7-3.5-4.06-6.08-7.99-12.4-11.81-18.9Z"/>
      <path class="cls-8" d="M3446.47,201.91c-.49.51-1.26,2.02-2.38,2.36-11.95,3.58-18.28,12.43-22.75,23.33-1.93,4.71-2.77,9.44-2.57,14.46.12,3.12.17,6.25.11,9.37-.05,2.48-1.36,4.08-3.33,4.23-2.32.17-3.38-1.29-4.05-3.27-2.3-6.85-4.36-13.8-7.03-20.5-5.64-14.11-9.71-16.36-26.27-16.95-1.06-.04-2.13.2-3.19.16-1.94-.08-3.66-.65-4.18-2.82-.45-1.9.53-3.36,2.89-4.27,3.76-1.45,7.6-2.69,11.29-4.3,12.05-5.27,18.38-14.57,19.12-27.69.14-2.43.3-4.87.47-7.3.14-1.97.93-3.58,2.88-4.27,2.26-.79,3.97.6,4.83,3.54,1.64,5.62,3.25,11.26,5.12,16.81.82,2.42,2.08,4.76,3.47,6.91,3.12,4.83,8.08,5.9,13.37,5.97,2.51.04,5.02-.21,7.53-.26,2.82-.05,4.64,1.4,4.66,4.49Z"/>
      <path class="cls-8" d="M3510.54,248.7c-.25.26-.63,1.01-1.19,1.18-5.97,1.79-9.14,6.21-11.37,11.66-.97,2.36-1.39,4.72-1.29,7.23.06,1.56.09,3.13.06,4.69-.02,1.24-.68,2.04-1.67,2.11-1.16.09-1.69-.64-2.02-1.64-1.15-3.42-2.18-6.9-3.52-10.25-2.82-7.05-4.85-8.18-13.13-8.48-.53-.02-1.07.1-1.6.08-.97-.04-1.83-.32-2.09-1.41-.23-.95.26-1.68,1.45-2.14,1.88-.73,3.8-1.35,5.64-2.15,6.03-2.63,9.19-7.28,9.56-13.84.07-1.22.15-2.43.24-3.65.07-.99.46-1.79,1.44-2.13,1.13-.39,1.98.3,2.41,1.77.82,2.81,1.62,5.63,2.56,8.41.41,1.21,1.04,2.38,1.73,3.46,1.56,2.42,4.04,2.95,6.69,2.99,1.25.02,2.51-.11,3.77-.13,1.41-.03,2.32.7,2.33,2.24Z"/>
    </g>
  </g>
</svg>